<svg width="140" height="140" viewBox="0 0 140 140" fill="none" xmlns="http://www.w3.org/2000/svg">
<path d="M74.8111 87.7241C72.7435 85.3193 70.6711 82.9184 68.6095 80.5086C66.663 78.2333 64.7384 75.9396 62.771 73.6823C62.5781 73.4609 62.1537 73.3388 61.8357 73.3369C57.5819 73.3108 53.3279 73.3143 49.003 73.2248C48.9319 70.9469 48.9645 68.754 48.9137 66.5629C48.8962 65.8102 49.1387 65.6412 49.8685 65.6435C58.0412 65.6687 66.214 65.6609 74.3868 65.6532C74.6814 65.653 74.9759 65.5628 75.2705 65.5145C75.3333 65.2523 75.45 64.9903 75.4509 64.7279C75.4631 61.2308 75.4412 57.7334 75.4744 54.2365C75.4809 53.5539 75.2742 53.3807 74.5974 53.3825C66.3357 53.4046 58.0739 53.3969 49.8121 53.3969C49.5074 53.3969 49.2027 53.3969 48.8438 53.3969C48.8438 50.7909 48.8438 48.2525 48.8438 45.6258C49.1141 45.6123 49.3862 45.587 49.6583 45.5869C58.1524 45.5848 66.6465 45.5818 75.1407 45.5864C79.6979 45.589 83.403 49.1408 83.4635 53.6385C83.5156 57.518 83.5151 61.3992 83.4631 65.2786C83.403 69.765 79.6839 73.3166 75.1326 73.3219C74.4438 73.3227 73.7551 73.322 72.8693 73.322C77.108 78.1707 81.2302 82.8862 85.2919 87.6581C81.758 87.7178 78.2845 87.7209 74.8111 87.7241Z" fill="#51B1EA"/>
<path d="M4.00001 82.5117C4.00002 70.1614 4.00002 57.8877 4.00002 45.5459C6.81067 45.5459 9.56429 45.5331 12.3173 45.5687C12.5545 45.5718 12.8311 45.8598 13.0159 46.0767C17.9225 51.8314 22.8193 57.5943 27.7185 63.3552C27.8345 63.4916 27.9585 63.6214 28.1294 63.8104C33.3214 57.685 38.5003 51.5749 43.6793 45.4648C43.7522 45.5062 43.8252 45.5476 43.8981 45.589C43.9108 45.8314 43.9344 46.0737 43.9346 46.3161C43.937 49.7624 43.9457 53.2087 43.9218 56.6548C43.9194 57.004 43.8102 57.4301 43.5913 57.689C38.5447 63.6594 33.4757 69.6114 28.4135 75.569C28.3306 75.6666 28.281 75.7919 28.1778 75.9698C22.7276 69.5868 17.379 63.3227 11.8874 56.8911C11.8874 67.3121 11.8874 77.5235 11.8874 87.7777C9.22628 87.7777 6.65727 87.7777 4 87.7777C4 86.0406 4 84.3145 4.00001 82.5117Z" fill="#191919"/>
<path d="M106.882 87.8231C100.87 87.8231 94.9359 87.8231 88.9531 87.8231C88.9531 85.2259 88.9531 82.6876 88.9531 80.0524C89.2179 80.0524 89.4912 80.0524 89.7645 80.0524C98.0533 80.0524 106.342 80.044 114.631 80.0668C115.361 80.0688 115.611 79.8905 115.598 79.1329C115.551 76.5551 115.556 73.9756 115.596 71.3976C115.607 70.7125 115.4 70.5438 114.723 70.5456C106.435 70.5679 98.1457 70.5601 89.8569 70.5601C89.5758 70.5601 89.2948 70.5601 88.9593 70.5601C88.9593 67.9612 88.9593 65.403 88.9593 62.7776C89.2585 62.7776 89.5362 62.7776 89.814 62.7776C98.2319 62.7776 106.65 62.7769 115.068 62.7778C119.907 62.7783 123.488 66.2831 123.52 71.0704C123.538 73.7765 123.425 76.4871 123.545 79.1882C123.754 83.9206 119.915 87.9524 114.861 87.8338C112.228 87.772 109.593 87.8231 106.882 87.8231Z" fill="#191919"/>
<path d="M128.09 55.8536C128.09 52.3853 128.09 48.9936 128.09 45.5723C130.713 45.5723 133.286 45.5723 135.904 45.5723C135.904 59.6454 135.904 73.6894 135.904 87.7767C133.303 87.7767 130.737 87.7767 128.09 87.7767C128.09 77.1465 128.09 66.5383 128.09 55.8536Z" fill="#191919"/>
<path d="M99.5995 45.5469C107.055 45.5469 114.433 45.5469 121.86 45.5469C121.86 48.1195 121.86 50.6563 121.86 53.2413C110.907 53.2413 99.9542 53.2413 88.9531 53.2413C88.9531 50.7194 88.9531 48.1824 88.9531 45.5469C92.4753 45.5469 95.9986 45.5469 99.5995 45.5469Z" fill="#191919"/>
<path d="M128.09 39.4617C128.09 37.6035 128.09 35.8219 128.09 34C130.717 34 133.286 34 135.903 34C135.903 36.5533 135.903 39.0944 135.903 41.6906C133.336 41.6906 130.771 41.6906 128.09 41.6906C128.09 40.9918 128.09 40.265 128.09 39.4617Z" fill="#191919"/>
<path d="M7.42549 102.45C7.32224 102.632 7.24009 102.761 7.16795 102.896C6.88046 103.434 6.60504 103.43 6.30686 102.898C5.84812 102.08 5.3749 101.27 4.79547 100.261C4.79547 101.693 4.79547 102.915 4.79547 104.191C4.51158 104.227 4.29882 104.254 4.03906 104.288C4.03906 102.443 4.03906 100.644 4.03906 98.5664C4.46732 98.8698 4.84331 99.0101 5.0114 99.2779C5.60596 100.225 6.12941 101.216 6.73272 102.284C7.33528 101.228 7.90683 100.265 8.43523 99.2802C8.66486 98.852 8.93165 98.6581 9.43546 98.8663C9.43546 100.641 9.43546 102.42 9.43546 104.232C9.22966 104.232 9.0309 104.232 8.73686 104.232C8.73686 102.977 8.73686 101.729 8.73686 100.481C8.68269 100.469 8.62853 100.457 8.57436 100.445C8.19997 101.096 7.82558 101.748 7.42549 102.45Z" fill="#191919"/>
<path d="M38.5027 100.829C38.196 101.363 37.8995 101.838 37.5387 102.415C37.8401 102.896 38.2412 103.535 38.6424 104.175C38.5799 104.245 38.5175 104.316 38.4551 104.387C38.1627 104.193 37.8484 104.023 37.586 103.795C37.4191 103.65 37.296 103.432 37.2107 103.224C36.8297 102.292 36.1308 102.113 35.1901 102.378C35.1901 102.974 35.1901 103.581 35.1901 104.224C34.9327 104.224 34.7178 104.224 34.4649 104.224C34.4649 102.507 34.4642 100.828 34.467 99.1497C34.4671 99.0518 34.4967 98.9539 34.5225 98.7955C35.3529 98.7955 36.1728 98.7472 36.9844 98.8081C37.9296 98.879 38.4796 99.6348 38.5027 100.829ZM35.173 99.9566C35.173 100.509 35.173 101.062 35.173 101.669C35.6063 101.669 35.9614 101.67 36.3165 101.669C36.4965 101.669 36.7053 101.724 36.8506 101.653C37.1315 101.516 37.4564 101.361 37.6199 101.118C37.9653 100.606 37.7532 99.8839 37.2492 99.5789C36.7881 99.2999 35.4254 99.3546 35.1817 99.667C35.1562 99.6997 35.175 99.7661 35.173 99.9566Z" fill="#191919"/>
<path d="M128.264 98.6172C128.456 98.8116 128.677 99.0032 128.685 99.2038C128.724 100.095 128.685 100.99 128.707 101.882C128.727 102.655 128.792 103.426 128.848 104.379C128.506 104.193 128.23 104.043 127.891 103.858C126.756 104.536 125.831 104.491 125.131 103.642C124.467 102.837 124.498 101.508 125.199 100.744C125.908 99.9713 126.74 99.9678 127.963 100.798C127.963 100.242 127.94 99.745 127.973 99.2516C127.988 99.0366 128.118 98.8293 128.264 98.6172ZM127.321 100.968C126.501 100.672 125.984 100.818 125.615 101.452C125.243 102.092 125.371 102.936 125.91 103.397C126.551 103.944 127.711 103.728 127.897 102.957C128.059 102.286 128.168 101.53 127.321 100.968Z" fill="#191919"/>
<path d="M77.1451 101.338C78.2813 101.757 78.6465 102.231 78.5092 103.042C78.3759 103.829 77.7117 104.332 76.6442 104.279C75.9944 104.247 75.3444 104.043 74.7143 103.853C74.2681 103.718 74.1778 103.41 74.4686 103.13C75.2283 103.312 75.926 103.53 76.6407 103.632C77.1138 103.7 77.6101 103.543 77.7192 102.985C77.8351 102.392 77.3591 102.189 76.9105 102.039C76.4233 101.876 75.9113 101.785 75.4259 101.617C74.8852 101.431 74.4797 101.107 74.4613 100.466C74.4428 99.8182 74.6784 99.3027 75.2722 99.0181C76.1746 98.5856 77.0836 98.6502 77.9255 99.1713C78.0758 99.2644 78.0774 99.5923 78.1473 99.8105C77.3647 99.6557 76.7469 99.4292 76.1408 99.4567C75.8268 99.4709 75.3957 99.8892 75.2856 100.214C75.225 100.392 75.6736 100.831 75.9777 101.014C76.2936 101.205 76.7121 101.229 77.1451 101.338Z" fill="#191919"/>
<path d="M67.8384 102.338C67.8383 102.991 67.8383 103.575 67.8383 104.224C67.5929 104.235 67.3833 104.244 67.1041 104.257C67.1041 102.465 67.0904 100.735 67.1265 99.0059C67.1299 98.8425 67.4459 98.6854 67.6167 98.5254C67.6892 98.5696 67.7617 98.6138 67.8341 98.6581C67.8341 99.3528 67.8341 100.047 67.8341 100.874C68.091 100.678 68.213 100.512 68.3599 100.487C68.8924 100.395 69.5277 100.155 69.9426 100.349C70.3074 100.52 70.5654 101.181 70.6278 101.656C70.7364 102.484 70.658 103.335 70.658 104.22C70.4412 104.237 70.2485 104.253 70.04 104.27C70.0073 104.171 69.9668 104.105 69.966 104.039C69.9594 103.452 69.9612 102.865 69.9578 102.279C69.9519 101.257 69.6974 100.818 69.1103 100.812C68.4466 100.806 67.897 101.435 67.8384 102.338Z" fill="#191919"/>
<path d="M19.1484 99.9955C19.1484 99.5162 19.1484 99.1103 19.1484 98.6617C19.3811 98.6487 19.5748 98.6378 19.8737 98.6211C19.8737 99.7854 19.8737 100.907 19.8737 102.03C19.9468 102.069 20.0199 102.109 20.0929 102.148C20.4662 101.748 20.8299 101.338 21.2154 100.949C21.577 100.584 21.8573 100.035 22.6139 100.326C22.1187 100.848 21.6402 101.353 21.1135 101.909C21.6414 102.657 22.1654 103.4 22.7716 104.26C21.3726 104.29 21.4105 102.903 20.5867 102.443C19.7593 102.727 19.8464 103.476 19.8589 104.218C19.6098 104.218 19.3947 104.218 19.1485 104.218C19.1485 102.819 19.1485 101.444 19.1484 99.9955Z" fill="#191919"/>
<path d="M42.3864 103.649C42.7712 103.492 42.9645 102.894 43.4633 103.33C43.0061 104.219 41.9671 104.582 40.9819 104.203C39.9841 103.82 39.4585 102.68 39.7834 101.605C40.083 100.614 41.1213 99.9868 42.1342 100.185C43.2348 100.4 43.86 101.26 43.7455 102.485C42.6818 102.485 41.6088 102.485 40.5293 102.485C40.6643 103.565 41.2774 103.945 42.3864 103.649ZM42.7554 101.961C43.2306 101.98 43.0987 101.696 42.9845 101.47C42.6841 100.873 42.1761 100.615 41.5202 100.742C40.8846 100.866 40.5107 101.251 40.4798 101.961C41.2243 101.961 41.9186 101.961 42.7554 101.961Z" fill="#191919"/>
<path d="M51.2332 103.792C51.564 103.651 51.8277 103.497 52.1074 103.382C52.3136 103.296 52.5408 103.261 52.9263 103.158C52.2625 104.251 51.2382 104.581 50.2755 104.185C49.3107 103.787 48.807 102.697 49.0975 101.636C49.3558 100.692 50.3701 100.031 51.3541 100.166C52.4829 100.32 53.1375 101.147 53.1032 102.459C52.042 102.459 50.9745 102.459 49.909 102.459C49.9111 103.326 50.2352 103.648 51.2332 103.792ZM49.9848 101.314C49.9164 101.51 49.8479 101.706 49.7767 101.91C50.7281 101.91 51.5775 101.91 52.441 101.91C52.0273 100.614 51.0376 100.344 49.9848 101.314Z" fill="#191919"/>
<path d="M91.5781 102.024C91.9458 100.664 92.8334 99.9954 93.9554 100.175C95.079 100.355 95.7427 101.229 95.6467 102.479C94.583 102.479 93.5123 102.479 92.4415 102.479C92.3863 102.548 92.3311 102.617 92.276 102.685C92.5652 103.013 92.7979 103.5 93.1591 103.626C93.5495 103.761 94.0661 103.589 94.5156 103.495C94.7784 103.44 95.0177 103.275 95.2998 103.233C94.9484 104.139 94.1893 104.476 93.1859 104.287C92.1976 104.101 91.6209 103.314 91.5781 102.024ZM92.9273 101.964C93.6046 101.964 94.2818 101.964 94.9828 101.964C94.7475 101.05 94.2962 100.68 93.5763 100.72C92.8778 100.76 92.4831 101.169 92.4047 101.947C92.5336 101.952 92.6617 101.958 92.9273 101.964Z" fill="#191919"/>
<path d="M23.7476 103.237C23.3575 102.305 23.4332 101.476 24.1099 100.78C24.6918 100.181 25.4223 100.007 26.2345 100.262C27.1594 100.552 27.6138 101.261 27.6012 102.475C26.518 102.475 25.4291 102.475 24.3265 102.475C24.5608 103.76 25.5883 104.152 26.5491 103.434C26.7359 103.295 27.0064 103.265 27.2619 103.262C26.497 104.717 24.7532 104.678 23.7476 103.237ZM25.6165 101.963C26.045 101.963 26.4735 101.963 26.9149 101.963C26.7227 101.087 26.2802 100.698 25.5611 100.715C24.8611 100.733 24.4607 101.119 24.321 101.963C24.7099 101.963 25.0895 101.963 25.6165 101.963Z" fill="#191919"/>
<path d="M57.5882 102.844C57.6534 103.348 57.7186 103.782 57.816 104.432C57.3847 104.213 57.1075 104.071 56.7771 103.903C55.6708 104.465 54.8053 104.527 54.3643 103.879C54.1359 103.543 54.0565 102.948 54.1897 102.566C54.4338 101.865 55.4204 101.686 56.7414 101.953C56.9212 101.001 56.3618 100.517 55.3504 100.764C55.1545 100.811 54.9792 100.941 54.7833 100.99C54.6631 101.02 54.522 100.968 54.3903 100.953C54.4393 100.809 54.4449 100.59 54.5443 100.534C55.2442 100.142 55.9865 99.9845 56.7523 100.345C57.4265 100.662 57.5864 101.263 57.5879 101.936C57.5885 102.215 57.5881 102.495 57.5882 102.844ZM56.3759 102.312C55.9725 102.342 55.5423 102.295 55.1724 102.421C54.6685 102.593 54.5017 103.056 54.8822 103.441C55.1053 103.667 55.6035 103.819 55.8985 103.734C56.2577 103.631 56.5688 103.271 56.8192 102.959C56.8794 102.884 56.618 102.557 56.3759 102.312Z" fill="#191919"/>
<path d="M14.2206 104.277C13.9951 104.146 13.8284 104.016 13.7164 103.929C13.1524 104.056 12.5732 104.279 11.9896 104.291C11.3315 104.304 10.8829 103.882 10.8128 103.203C10.745 102.546 11.1085 102.096 11.7226 101.968C12.3077 101.845 12.925 101.873 13.5445 101.834C13.6493 100.991 13.1787 100.562 12.2299 100.745C12.0068 100.788 11.8035 100.93 11.5805 100.975C11.4481 101.001 11.295 100.927 11.1512 100.898C11.2047 100.775 11.2235 100.594 11.3172 100.54C12.0185 100.141 12.7594 99.9858 13.5293 100.342C14.2089 100.656 14.3457 101.259 14.3805 101.931C14.414 102.579 14.5194 103.224 14.551 103.872C14.5574 104.002 14.3748 104.142 14.2206 104.277ZM11.4795 103.096C11.8964 103.916 12.9405 104.064 13.4435 103.322C13.5868 103.111 13.5752 102.561 13.4137 102.427C12.8684 101.977 11.832 102.319 11.4795 103.096Z" fill="#191919"/>
<path d="M106.928 103.425C106.448 102.533 106.46 101.704 107.049 100.938C107.522 100.323 108.183 100.064 108.958 100.179C109.899 100.319 110.562 101.016 110.708 101.971C110.845 102.866 110.337 103.793 109.506 104.165C108.635 104.556 107.721 104.308 106.928 103.425ZM109.876 102.808C110.121 102.104 110.001 101.431 109.365 101.062C109.017 100.859 108.408 100.843 108.029 101.003C107.443 101.251 107.258 101.862 107.354 102.493C107.446 103.092 107.762 103.542 108.393 103.674C109.068 103.815 109.528 103.501 109.876 102.808Z" fill="#191919"/>
<path d="M80.115 103.767C79.3956 102.817 79.3099 101.926 79.8237 101.107C80.2555 100.418 81.0929 100.039 81.8782 100.176C82.7526 100.329 83.4083 100.966 83.5854 101.835C83.7533 102.658 83.4075 103.527 82.73 103.983C81.9574 104.504 81.0741 104.444 80.115 103.767ZM81.7817 100.802C80.879 100.816 80.3448 101.251 80.2447 102.055C80.1565 102.763 80.5524 103.449 81.1628 103.648C81.7714 103.846 82.3975 103.571 82.7073 102.969C83.0824 102.241 82.8722 101.433 82.1767 100.956C82.0945 100.899 81.9887 100.876 81.7817 100.802Z" fill="#191919"/>
<path d="M135.73 103.38C135.824 103.687 135.911 103.93 135.998 104.172C135.939 104.23 135.881 104.288 135.822 104.346C135.544 104.21 135.265 104.074 135.041 103.964C134.478 104.076 133.896 104.281 133.312 104.285C132.681 104.289 132.26 103.854 132.183 103.227C132.103 102.581 132.461 102.108 133.073 101.976C133.681 101.846 134.324 101.875 134.959 101.834C134.964 100.936 134.522 100.557 133.589 100.749C133.366 100.795 133.164 100.941 132.942 100.983C132.81 101.007 132.657 100.919 132.513 100.882C132.572 100.764 132.599 100.59 132.695 100.537C133.399 100.146 134.143 99.9828 134.91 100.342C135.621 100.676 135.75 101.312 135.726 102.015C135.711 102.448 135.724 102.881 135.73 103.38ZM132.879 103.102C133.169 103.334 133.467 103.762 133.749 103.752C134.153 103.737 134.584 103.451 134.92 103.18C135.039 103.084 135.016 102.588 134.878 102.452C134.39 101.969 133.19 102.314 132.879 103.102Z" fill="#191919"/>
<path d="M101.011 105.887C100.73 105.938 100.503 105.961 100.103 106.002C100.213 105.716 100.229 105.437 100.366 105.355C101.113 104.905 101.3 104.466 100.977 103.705C100.502 102.587 100.021 101.472 99.5352 100.338C100.04 100.139 100.282 100.261 100.451 100.726C100.778 101.624 101.168 102.499 101.6 103.551C101.994 102.505 102.354 101.62 102.656 100.717C102.802 100.282 103.017 100.141 103.51 100.331C102.832 102.034 102.163 103.734 101.472 105.424C101.402 105.595 101.203 105.715 101.011 105.887Z" fill="#191919"/>
<path d="M122.904 100.35C123.119 100.798 123.392 101.201 123.431 101.625C123.507 102.459 123.453 103.304 123.453 104.211C123.224 104.232 123.013 104.25 122.712 104.277C122.712 103.484 122.718 102.751 122.71 102.018C122.704 101.472 122.712 100.887 121.958 100.817C121.334 100.759 120.661 101.388 120.633 102.058C120.603 102.767 120.626 103.478 120.626 104.227C120.367 104.24 120.173 104.25 119.934 104.262C119.934 102.935 119.934 101.642 119.934 100.139C120.253 100.334 120.494 100.482 120.815 100.678C121.329 100.325 122.008 99.8994 122.904 100.35Z" fill="#191919"/>
<path d="M65.0154 103.401C65.3082 103.298 65.5631 103.236 65.9312 103.146C65.4992 104.117 64.7624 104.459 63.7757 104.292C62.8504 104.137 62.1663 103.344 62.1093 102.361C62.0526 101.385 62.6309 100.54 63.5499 100.257C64.5111 99.9603 65.3166 100.263 65.9378 101.278C65.5648 101.228 65.2359 101.281 65.0589 101.143C64.4583 100.675 63.8883 100.647 63.3184 101.13C62.7915 101.576 62.706 102.488 63.0962 103.094C63.4869 103.7 64.0863 103.846 64.8443 103.519C64.8911 103.499 64.9332 103.468 65.0154 103.401Z" fill="#191919"/>
<path d="M86.9655 104.311C85.9284 104.39 85.1865 104.02 84.7871 103.123C84.4262 102.313 84.5164 101.517 85.1173 100.844C85.6969 100.194 86.4573 99.973 87.2836 100.266C87.6878 100.409 88.0289 100.727 88.3986 100.965C88.355 101.075 88.3114 101.184 88.2678 101.294C87.9915 101.22 87.6763 101.206 87.4465 101.06C86.8191 100.662 86.1848 100.695 85.7145 101.219C85.2168 101.773 85.2112 102.678 85.702 103.252C86.1425 103.768 86.847 103.836 87.4433 103.467C87.6884 103.315 87.9896 103.251 88.3191 103.262C88.1058 103.935 87.6319 104.208 86.9655 104.311Z" fill="#191919"/>
<path d="M46.9369 104.29C46.2535 104.195 45.6239 104.117 45.0126 103.967C44.8869 103.936 44.8293 103.634 44.6758 103.329C45.431 103.528 45.9352 103.752 46.4437 103.762C46.7451 103.768 47.0532 103.436 47.3583 103.256C47.1211 103.036 46.9156 102.756 46.6383 102.609C46.3288 102.445 45.909 102.471 45.6199 102.287C45.3125 102.092 44.8875 101.737 44.9008 101.471C44.9197 101.09 45.2014 100.577 45.5291 100.387C46.3333 99.9198 47.1503 100.13 47.8772 100.641C47.8759 100.733 47.8746 100.824 47.8733 100.915C47.6765 100.915 47.4775 100.934 47.2833 100.911C46.8819 100.865 46.4761 100.728 46.0861 100.767C45.8855 100.787 45.6303 101.079 45.5651 101.297C45.5301 101.413 45.8134 101.696 46.009 101.791C46.303 101.935 46.6481 101.973 46.9678 102.068C47.4946 102.225 48.0352 102.38 48.0501 103.071C48.0654 103.78 47.6384 104.125 46.9369 104.29Z" fill="#191919"/>
<path d="M112.879 103.173C112.879 103.549 112.879 103.852 112.879 104.218C112.631 104.232 112.423 104.244 112.163 104.258C112.163 103.265 112.163 102.33 112.163 101.417C111.54 101.139 111.567 101.164 112.026 100.678C112.165 100.53 112.126 100.207 112.148 99.9629C112.249 98.8481 113.061 98.2603 113.98 98.6613C114.102 98.7146 114.197 98.8872 114.239 99.0243C114.252 99.0665 114.052 99.2333 113.941 99.243C112.902 99.3333 112.811 99.4517 112.935 100.68C113.102 100.693 113.275 100.707 113.449 100.719C113.599 100.729 113.749 100.736 113.899 100.745C113.88 101.242 113.88 101.242 112.879 101.325C112.879 101.908 112.879 102.504 112.879 103.173Z" fill="#191919"/>
<path d="M97.7474 102.111C97.7474 102.362 97.7465 102.54 97.7476 102.718C97.7533 103.673 97.8241 103.732 98.7621 103.564C99.0826 103.936 98.9231 104.132 98.5115 104.249C97.5507 104.522 97.0332 104.142 97.018 103.136C97.0095 102.576 97.0517 102.013 96.9998 101.459C96.9777 101.222 96.7621 101.007 96.6566 100.773C96.5948 100.635 96.5768 100.478 96.5391 100.33C97.3541 100.145 96.8748 99.4727 97.0793 98.959C97.2345 98.9382 97.4441 98.9102 97.7213 98.873C97.7213 99.3274 97.7213 99.7251 97.7213 99.9489C97.9304 100.49 98.8719 99.8577 98.614 100.767C98.3457 100.785 98.0924 100.802 97.7474 100.826C97.7474 101.245 97.7474 101.642 97.7474 102.111Z" fill="#191919"/>
<path d="M29.1308 98.9153C29.5219 98.8644 29.759 98.9088 29.7147 99.3281C29.6856 99.603 29.7092 99.8834 29.7092 100.045C30.0643 100.247 30.3336 100.4 30.6029 100.553C30.3538 100.671 30.1047 100.788 29.7149 100.972C29.7149 101.639 29.6576 102.448 29.7554 103.239C29.7797 103.435 30.3068 103.57 30.6624 103.656C31.0156 103.999 30.7932 104.176 30.362 104.269C29.5854 104.436 29.0348 104.189 28.9865 103.576C28.9345 102.917 28.8776 102.234 28.9967 101.593C29.1057 101.006 28.357 100.713 28.4932 100.504C28.7182 100.158 29.066 99.9297 28.9784 99.4368C28.9501 99.2777 29.0313 99.0997 29.1308 98.9153Z" fill="#191919"/>
<path d="M75.1996 65.5087C74.9773 65.5618 74.6828 65.652 74.3882 65.6523C66.2154 65.6599 58.0426 65.6677 49.8699 65.6425C49.1402 65.6403 48.8977 65.8092 48.9151 66.5619C48.9659 68.753 48.9333 70.946 48.9338 73.2064C48.8897 73.2176 48.8065 73.1608 48.8064 73.1037C48.7999 70.6085 48.8008 68.1133 48.8008 65.5039C57.6091 65.5039 66.3682 65.5039 75.1996 65.5087Z" fill="#191919"/>
<path d="M118.301 101.813C118.301 102.65 118.301 103.411 118.301 104.226C118.038 104.239 117.822 104.249 117.574 104.261C117.574 102.436 117.574 100.662 117.574 98.8207C117.796 98.8105 118.007 98.8007 118.301 98.7871C118.301 99.8129 118.301 100.775 118.301 101.813Z" fill="#191919"/>
<path d="M59.8146 102.16C59.8145 102.888 59.8145 103.544 59.8145 104.23C59.5696 104.23 59.3726 104.23 59.1484 104.23C59.1484 102.918 59.1484 101.631 59.1484 100.09C59.4902 100.35 59.7046 100.514 59.9584 100.707C60.2306 100.567 60.6715 100.34 61.1125 100.113C61.1948 100.215 61.2772 100.317 61.3596 100.419C61.1831 100.583 61.034 100.808 60.825 100.9C60.28 101.14 59.8114 101.409 59.8146 102.16Z" fill="#191919"/>
<path d="M16.2294 100.249C16.417 100.421 16.5475 100.592 16.6653 100.747C17.0148 100.57 17.4609 100.345 17.9069 100.119C17.9843 100.217 18.0617 100.316 18.1391 100.414C17.98 100.577 17.8496 100.824 17.6565 100.889C16.933 101.135 16.5331 101.549 16.5873 102.353C16.6284 102.961 16.5954 103.575 16.5954 104.222C16.3469 104.222 16.1322 104.222 15.8849 104.222C15.8849 103.009 15.8753 101.836 15.8975 100.664C15.9002 100.524 16.0765 100.387 16.2294 100.249Z" fill="#191919"/>
<path d="M131.004 103.746C131.042 104.444 130.635 104.269 130.273 104.216C130.273 102.907 130.273 101.611 130.273 100.283C130.515 100.283 130.731 100.283 131.004 100.283C131.004 101.442 131.004 102.559 131.004 103.746Z" fill="#191919"/>
<path d="M90.3232 102.121C90.3232 102.856 90.3232 103.514 90.3232 104.196C89.9538 104.276 89.6334 104.409 89.6408 103.839C89.6559 102.673 89.6453 101.506 89.6453 100.297C89.8778 100.297 90.0649 100.297 90.3232 100.297C90.3232 100.887 90.3232 101.466 90.3232 102.121Z" fill="#191919"/>
<path d="M74.8555 87.7727C78.2881 87.7194 81.7615 87.7162 85.3105 87.707C85.3368 87.7568 85.2873 87.8615 85.2381 87.8614C81.7908 87.8539 78.3436 87.838 74.8555 87.7727Z" fill="#191919"/>
<path d="M130.499 99.5306C130.359 99.2689 130.274 99.0099 130.16 98.6647C130.497 98.6456 130.708 98.6337 130.998 98.6172C130.899 99.0054 131.35 99.5322 130.499 99.5306Z" fill="#191919"/>
</svg>
