<svg
  width="17"
  height="23"
  viewBox="0 0 17 23"
  fill="none"
  xmlns="http://www.w3.org/2000/svg"
>
  <path
    d="M8.26327 22.8023C5.71911 22.8023 3.7006 22.0201 2.20775 20.4559C0.735916 18.8715 0 16.826 0 14.3191C0 11.7922 0.777969 9.79676 2.3339 8.33277C3.88984 6.84872 5.86629 6.10669 8.26327 6.10669C10.8074 6.10669 12.8154 6.8788 14.2873 8.42301C15.7801 9.96723 16.49 11.9326 16.49 14.3191C16.49 16.9463 15.7591 19.0219 14.2242 20.5461C12.6893 22.0502 10.7023 22.8023 8.26327 22.8023ZM8.26327 20.3656C9.90331 20.3656 11.1964 19.7941 12.1426 18.6509C13.1098 17.5078 13.5934 16.0639 13.5934 14.3191C13.5934 12.5944 13.0993 11.2006 12.1111 10.1377C11.1439 9.07479 9.86126 8.54334 8.26327 8.54334C6.66528 8.54334 5.37218 9.07479 4.38395 10.1377C3.41675 11.2006 2.93315 12.5944 2.93315 14.3191C2.93315 16.1842 3.43777 17.6582 4.44703 18.7412C5.45628 19.8241 6.72836 20.3656 8.26327 20.3656Z"
    fill="url(#paint0_linear_4062_961)"
  />
  <path
    fill-rule="evenodd"
    clip-rule="evenodd"
    d="M16.4898 14.3642V14.158H13.5932V14.3642C13.5849 16.0887 13.1014 17.5177 12.1425 18.651C11.1963 19.7941 9.90321 20.3656 8.26317 20.3656C6.72826 20.3656 5.45618 19.8242 4.44692 18.7412C4.23976 18.5189 4.05386 18.2801 3.88922 18.0249L2.07581 20.3105C2.11907 20.3594 2.16302 20.4078 2.20764 20.4559C3.7005 22.0202 5.719 22.8023 8.26317 22.8023C10.7022 22.8023 12.6892 22.0502 14.2241 20.5461C15.7502 19.0307 16.4815 16.97 16.4898 14.3642Z"
    fill="url(#paint1_linear_4062_961)"
  />
  <path
    fill-rule="evenodd"
    clip-rule="evenodd"
    d="M13.4389 6.017C15.5504 8.48772 16.4876 11.3158 16.4876 14.1622H13.5925C13.5925 11.9842 12.8878 9.82844 11.238 7.89795C9.5757 5.9529 6.89294 4.16811 2.83997 2.88033L3.71668 0.121094C8.1417 1.52708 11.3398 3.56084 13.4389 6.017Z"
    fill="url(#paint2_linear_4062_961)"
  />
  <path
    d="M16.0585 2.8477V0L2.82457 0V2.8477L16.0585 2.8477Z"
    fill="url(#paint3_linear_4062_961)"
  />
  <defs>
    <linearGradient
      id="paint0_linear_4062_961"
      x1="3.63083"
      y1="17.3918"
      x2="15.1894"
      y2="8.79221"
      gradientUnits="userSpaceOnUse"
    >
      <stop stop-color="#F3ECFF" />
      <stop offset="0.460261" stop-color="#F3ECFF" stop-opacity="0.7" />
      <stop offset="0.901369" stop-color="#F3ECFF" stop-opacity="0" />
      <stop offset="1" stop-color="#F3ECFF" stop-opacity="0" />
    </linearGradient>
    <linearGradient
      id="paint1_linear_4062_961"
      x1="3.63087"
      y1="17.3918"
      x2="13.5929"
      y2="14.158"
      gradientUnits="userSpaceOnUse"
    >
      <stop stop-color="#F3ECFF" stop-opacity="0.9" />
      <stop offset="1" stop-color="#F3ECFF" />
    </linearGradient>
    <linearGradient
      id="paint2_linear_4062_961"
      x1="9.6638"
      y1="0.121094"
      x2="9.6638"
      y2="14.1622"
      gradientUnits="userSpaceOnUse"
    >
      <stop stop-color="#F8F4FF" />
      <stop offset="1" stop-color="#F3ECFF" />
    </linearGradient>
    <linearGradient
      id="paint3_linear_4062_961"
      x1="16.0585"
      y1="1.42385"
      x2="2.82457"
      y2="1.42385"
      gradientUnits="userSpaceOnUse"
    >
      <stop stop-color="white" />
      <stop offset="1" stop-color="#F8F4FF" />
    </linearGradient>
  </defs>
</svg>
