<svg
  width="39"
  height="53"
  viewBox="0 0 39 53"
  fill="none"
  xmlns="http://www.w3.org/2000/svg"
>
  <path
    fill-rule="evenodd"
    clip-rule="evenodd"
    d="M38.0356 33.0922V32.6172H31.3623V33.0922C31.3432 37.0654 30.2292 40.3574 28.0201 42.9683C25.8403 45.6019 22.8612 46.9186 19.0828 46.9186C15.5466 46.9186 12.6159 45.6712 10.2908 43.1762C9.81352 42.6641 9.38524 42.114 9.00594 41.526L4.82812 46.7916C4.92781 46.9043 5.02905 47.0159 5.13185 47.1266C8.57115 50.7304 13.2215 52.5323 19.0828 52.5323C24.7019 52.5323 29.2796 50.7997 32.8157 47.3345C36.3317 43.8431 38.0165 39.0957 38.0356 33.0922Z"
    fill="url(#paint0_linear_4013_297)"
  />
  <path
    d="M19.0831 52.5327C13.2218 52.5327 8.57147 50.7308 5.13218 47.127C1.74133 43.4769 0.0458984 38.7643 0.0458984 32.9889C0.0458984 27.1674 1.83821 22.5702 5.42282 19.1974C9.00744 15.7784 13.5609 14.0688 19.0831 14.0688C24.9444 14.0688 29.5705 15.8477 32.9614 19.4053C36.4007 22.9629 38.0361 27.4908 38.0361 32.9889C38.0361 39.0415 36.3522 43.8235 32.8161 47.3349C29.2799 50.8001 24.7022 52.5327 19.0831 52.5327ZM19.0831 46.9191C22.8615 46.9191 25.8406 45.6023 28.0204 42.9687C30.2487 40.3352 31.3628 37.0086 31.3628 32.9889C31.3628 29.0155 30.2245 25.8044 27.9478 23.3556C25.7195 20.9069 22.7646 19.6825 19.0831 19.6825C15.4016 19.6825 12.4225 20.9069 10.1458 23.3556C7.91752 25.8044 6.80338 29.0155 6.80338 32.9889C6.80338 37.2858 7.96596 40.6817 10.2911 43.1766C12.6163 45.6716 15.5469 46.9191 19.0831 46.9191Z"
    fill="url(#paint1_linear_4013_297)"
  />
  <path
    fill-rule="evenodd"
    clip-rule="evenodd"
    d="M31.0069 13.8622C35.8715 19.5544 38.0307 26.0698 38.0307 32.6275H31.3607C31.3607 27.6097 29.7373 22.6432 25.9364 18.1956C22.1068 13.7146 15.9261 9.60271 6.58875 6.63589L8.60854 0.279053C18.8031 3.51822 26.171 8.20366 31.0069 13.8622Z"
    fill="url(#paint2_linear_4013_297)"
  />
  <path
    d="M37.042 6.56063V0L6.55328 0V6.56063L37.042 6.56063Z"
    fill="url(#paint3_linear_4013_297)"
  />
  <defs>
    <linearGradient
      id="paint0_linear_4013_297"
      x1="8.41073"
      y1="40.0675"
      x2="31.3615"
      y2="32.6172"
      gradientUnits="userSpaceOnUse"
    >
      <stop stop-color="#754DFA" />
      <stop offset="1" stop-color="#895CFC" />
    </linearGradient>
    <linearGradient
      id="paint1_linear_4013_297"
      x1="8.41073"
      y1="40.0678"
      x2="35.0398"
      y2="20.2558"
      gradientUnits="userSpaceOnUse"
    >
      <stop stop-color="#764DFA" />
      <stop offset="0.460261" stop-color="#6A41F5" stop-opacity="0.7" />
      <stop offset="0.901369" stop-color="#5F35F0" stop-opacity="0" />
      <stop offset="1" stop-color="#5F35F0" stop-opacity="0" />
    </linearGradient>
    <linearGradient
      id="paint2_linear_4013_297"
      x1="19.9134"
      y1="6.6682"
      x2="19.9134"
      y2="32.6275"
      gradientUnits="userSpaceOnUse"
    >
      <stop stop-color="#BA91FF" />
      <stop offset="1" stop-color="#895CFC" />
    </linearGradient>
    <linearGradient
      id="paint3_linear_4013_297"
      x1="37.042"
      y1="3.28031"
      x2="6.55328"
      y2="3.28031"
      gradientUnits="userSpaceOnUse"
    >
      <stop stop-color="#BF94FF" />
      <stop offset="1" stop-color="#BA91FF" />
    </linearGradient>
  </defs>
</svg>
