<?xml version="1.0" encoding="UTF-8"?>
<svg version="1.1" xmlns="http://www.w3.org/2000/svg" width="512" height="512">
<defs><linearGradient id="myGradient" x1="0%" y1="0%" x2="100%" y2="0%"><stop offset="0%" stop-color="#68a2ec" /><stop offset="100%" stop-color="#c677db" /></linearGradient></defs>
<path d="M0 0 C1.45108658 0.00273422 1.45108658 0.00273422 2.93148804 0.00552368 C17.26440977 0.05095174 31.21023917 0.55983928 45.3125 3.3125 C46.65803955 3.55395752 46.65803955 3.55395752 48.03076172 3.80029297 C107.84088904 14.62287989 165.35495829 48.68064457 202.3125 97.3125 C202.72918945 97.85277832 203.14587891 98.39305664 203.57519531 98.94970703 C211.2584873 108.9447116 218.00092968 119.40459036 224.3125 130.3125 C224.70679199 130.98974121 225.10108398 131.66698242 225.50732422 132.36474609 C238.68961173 155.2833756 247.29510918 180.85822563 252.625 206.6875 C252.77243652 207.39817627 252.91987305 208.10885254 253.07177734 208.84106445 C256.05713787 224.48358366 256.6873098 240.11919606 256.625 256 C256.62226578 257.45108658 256.62226578 257.45108658 256.61947632 258.93148804 C256.57404826 273.26440977 256.06516072 287.21023917 253.3125 301.3125 C253.15152832 302.20952637 252.99055664 303.10655273 252.82470703 304.03076172 C242.00212011 363.84088904 207.94435543 421.35495829 159.3125 458.3125 C158.77222168 458.72918945 158.23194336 459.14587891 157.67529297 459.57519531 C147.6802884 467.2584873 137.22040964 474.00092968 126.3125 480.3125 C125.63525879 480.70679199 124.95801758 481.10108398 124.26025391 481.50732422 C101.3416244 494.68961173 75.76677437 503.29510918 49.9375 508.625 C49.22682373 508.77243652 48.51614746 508.91987305 47.78393555 509.07177734 C32.14141634 512.05713787 16.50580394 512.6873098 0.625 512.625 C-0.34239105 512.62317719 -1.3097821 512.62135437 -2.30648804 512.61947632 C-16.63940977 512.57404826 -30.58523917 512.06516072 -44.6875 509.3125 C-45.58452637 509.15152832 -46.48155273 508.99055664 -47.40576172 508.82470703 C-107.21588904 498.00212011 -164.72995829 463.94435543 -201.6875 415.3125 C-202.10418945 414.77222168 -202.52087891 414.23194336 -202.95019531 413.67529297 C-210.6334873 403.6802884 -217.37592968 393.22040964 -223.6875 382.3125 C-224.08179199 381.63525879 -224.47608398 380.95801758 -224.88232422 380.26025391 C-238.06461173 357.3416244 -246.67010918 331.76677437 -252 305.9375 C-252.14743652 305.22682373 -252.29487305 304.51614746 -252.44677734 303.78393555 C-255.43213787 288.14141634 -256.0623098 272.50580394 -256 256.625 C-255.99817719 255.65760895 -255.99635437 254.6902179 -255.99447632 253.69351196 C-255.94904826 239.36059023 -255.44016072 225.41476083 -252.6875 211.3125 C-252.44604248 209.96696045 -252.44604248 209.96696045 -252.19970703 208.59423828 C-241.37712011 148.78411096 -207.31935543 91.27004171 -158.6875 54.3125 C-158.14722168 53.89581055 -157.60694336 53.47912109 -157.05029297 53.04980469 C-147.0552884 45.3665127 -136.59540964 38.62407032 -125.6875 32.3125 C-125.01025879 31.91820801 -124.33301758 31.52391602 -123.63525391 31.11767578 C-100.7166244 17.93538827 -75.14177437 9.32989082 -49.3125 4 C-48.60182373 3.85256348 -47.89114746 3.70512695 -47.15893555 3.55322266 C-31.51641634 0.56786213 -15.88080394 -0.0623098 0 0 Z M-16.6875 107.3125 C-18.68090269 111.27248042 -18.9230055 114.52464753 -18.8828125 118.92578125 C-18.87314453 120.7965332 -18.87314453 120.7965332 -18.86328125 122.70507812 C-18.84652344 123.99865234 -18.82976562 125.29222656 -18.8125 126.625 C-18.80347656 127.93791016 -18.79445312 129.25082031 -18.78515625 130.60351562 C-18.76161797 133.84002913 -18.7287352 137.07617149 -18.6875 140.3125 C-20.22857422 140.65861328 -20.22857422 140.65861328 -21.80078125 141.01171875 C-30.23462944 142.96961282 -37.99186271 145.23057071 -45.6875 149.3125 C-46.50347656 149.73015625 -47.31945312 150.1478125 -48.16015625 150.578125 C-63.97559487 159.30042713 -74.37454022 172.91962489 -79.875 190 C-83.36039006 205.82555487 -81.87311449 222.93819803 -73.0859375 236.84765625 C-71.38364738 239.1134899 -69.59444147 241.21687169 -67.6875 243.3125 C-67.12675781 243.96476563 -66.56601563 244.61703125 -65.98828125 245.2890625 C-51.49814389 261.06791056 -30.13182278 268.6959474 -10.47949219 275.63671875 C17.25001714 285.54770822 17.25001714 285.54770822 23.4375 297.75 C25.23666169 305.07515829 25.26526179 311.68206087 21.3125 318.3125 C15.29679788 325.42508228 6.29907028 328.14278372 -2.6875 329.3125 C-22.31417307 330.24813963 -40.15911223 326.48862926 -58.6875 320.3125 C-63.64974123 319.83536142 -66.77116466 320.48332943 -71.01171875 322.8515625 C-75.47708225 326.7444435 -77.38471989 331.67354761 -78.9375 337.25 C-79.27265625 338.41402344 -79.6078125 339.57804688 -79.953125 340.77734375 C-81.27163977 347.12444941 -81.27931712 351.80504709 -77.6875 357.3125 C-63.55792474 370.48240758 -38.09219717 371.71906113 -19.6875 372.3125 C-19.71368408 373.23063477 -19.73986816 374.14876953 -19.7668457 375.09472656 C-19.85218373 378.5091118 -19.91480074 381.92236061 -19.9621582 385.33740234 C-19.98726737 386.81382146 -20.02136255 388.29011668 -20.06469727 389.76611328 C-20.125518 391.8912614 -20.15374209 394.01476394 -20.17578125 396.140625 C-20.20196533 397.4184082 -20.22814941 398.69619141 -20.25512695 400.01269531 C-19.96891305 403.4304391 -19.96891305 403.4304391 -17.51831055 405.7253418 C-12.60991841 408.47734329 -7.69370735 407.92848887 -2.1875 407.875 C-1.05957031 407.89884766 0.06835938 407.92269531 1.23046875 407.94726562 C2.31972656 407.94533203 3.40898437 407.94339844 4.53125 407.94140625 C6.0152832 407.9424939 6.0152832 407.9424939 7.52929688 407.94360352 C11.4775081 407.0483293 12.92508333 405.55089569 15.3125 402.3125 C15.75253142 399.52412027 15.90335432 397.37197947 15.80078125 394.60546875 C15.79370651 393.88007401 15.78663177 393.15467926 15.77934265 392.40730286 C15.75148406 390.10379297 15.68877191 387.80276749 15.625 385.5 C15.59990563 383.93297797 15.57709444 382.3659176 15.55664062 380.79882812 C15.50168681 376.96910344 15.41548226 373.14122203 15.3125 369.3125 C16.16086426 369.24119873 16.16086426 369.24119873 17.02636719 369.16845703 C35.73071758 367.37944738 54.32620637 358.00505803 66.67382812 343.73974609 C79.78032371 327.31660678 82.76563689 309.72180763 81.3125 289.3125 C79.34578946 274.78279553 71.48294587 261.98225173 60.25 252.8125 C45.95060166 242.00438863 29.39411337 235.49813937 12.87060547 228.88525391 C-18.12269207 216.44211587 -18.12269207 216.44211587 -23.6875 205.3125 C-24.1947965 199.75718752 -24.45010422 194.89419764 -22 189.8125 C-15.11102584 182.36496037 -6.99516405 179.51959098 2.9765625 178.95703125 C17.08663601 178.55848868 30.78257601 180.39669122 44.2109375 184.734375 C49.12061607 186.0849929 52.94576866 186.02214896 57.5625 183.625 C62.52982166 179.44793406 64.83656651 175.69743338 66.5625 169.4375 C66.89765625 168.26445312 67.2328125 167.09140625 67.578125 165.8828125 C68.7975483 159.95433965 69.09662639 155.17215699 65.66796875 149.94140625 C57.64586561 140.30101141 41.91220844 139.45012702 30.26611328 138.3269043 C25.95092867 137.94861832 21.63405087 137.60916569 17.3125 137.3125 C17.32297363 136.58135986 17.33344727 135.85021973 17.34423828 135.09692383 C17.38590289 131.77298441 17.41185956 128.44910005 17.4375 125.125 C17.46263672 123.39926758 17.46263672 123.39926758 17.48828125 121.63867188 C17.49472656 120.52685547 17.50117188 119.41503906 17.5078125 118.26953125 C17.51828613 117.24835205 17.52875977 116.22717285 17.53955078 115.17504883 C17.21770344 111.11734983 16.43206761 108.42613592 13.51538086 105.52490234 C10.84920568 104.05751611 9.10045438 103.92533451 6.06640625 103.9140625 C5.06416016 103.91019531 4.06191406 103.90632813 3.02929688 103.90234375 C1.46791992 103.91974609 1.46791992 103.91974609 -0.125 103.9375 C-1.16205078 103.92589844 -2.19910156 103.91429688 -3.26757812 103.90234375 C-10.56747352 103.77748055 -10.56747352 103.77748055 -16.6875 107.3125 Z " fill="url(#myGradient)" transform="translate(255.6875,-0.3125)"/>
</svg>
