<?xml version="1.0" encoding="UTF-8"?>
<svg version="1.1" xmlns="http://www.w3.org/2000/svg" width="512" height="512">
<defs><linearGradient id="myGradient" x1="0%" y1="0%" x2="100%" y2="0%"><stop offset="0%" stop-color="#68a2ec" /><stop offset="100%" stop-color="#c677db" /></linearGradient></defs>
<path d="M0 0 C7.68731089 22.55652955 14.91701083 45.2505244 22.0637207 67.98339844 C22.83799497 70.44598191 23.61232767 72.90854701 24.38671875 75.37109375 C24.76973648 76.58918732 25.15275421 77.80728088 25.54737854 79.06228638 C28.15778287 87.35338955 30.7974534 95.63470434 33.45703125 103.91015625 C33.80758575 105.00213318 34.15814026 106.09411011 34.51931763 107.21917725 C36.17223532 112.3666728 37.8294089 117.51273567 39.49316406 122.65673828 C40.08025443 124.48334178 40.66717841 126.30999877 41.25390625 128.13671875 C41.51967972 128.95278091 41.78545319 129.76884308 42.0592804 130.6096344 C43.3770808 134.72714926 44.4224891 138.69808048 45 143 C45.66 143 46.32 143 47 143 C47.10870926 142.45237 47.21741852 141.90473999 47.329422 141.34051514 C48.49334824 135.76777513 50.09621749 130.53533775 52.07421875 125.203125 C52.66510056 123.56915032 53.25558392 121.93503151 53.84570312 120.30078125 C54.76921533 117.76229402 55.69658043 115.22537361 56.63110352 112.69091797 C57.53971389 110.21963085 58.43291751 107.74319792 59.32421875 105.265625 C59.60746506 104.51033508 59.89071136 103.75504517 60.18254089 102.97686768 C61.62061273 98.94772243 62.46011577 96.10009033 61 92 C59.83662987 89.98145564 58.59861332 88.00514354 57.3125 86.0625 C50.31583664 75.15877333 44.56429748 63.2650824 46 50 C47.78251684 44.13297314 50.93200619 40.47803497 56 37 C66.87462694 31.65807799 80.94202941 31.1328636 92.5234375 34.82421875 C98.09095958 37.4674745 102.56870888 41.42367599 105.5625 46.8125 C107.72513583 62.56884678 101.71828673 74.70404512 94 88 C93.21625 88.95132813 92.4325 89.90265625 91.625 90.8828125 C89.05611969 95.81061655 91.09010126 100.0873337 92.6897583 105.20797729 C93.44359818 107.43923881 94.23408155 109.65388186 95.0390625 111.8671875 C95.32478119 112.66859161 95.61049988 113.46999573 95.90487671 114.29568481 C96.80653598 116.82396469 97.71497224 119.34972128 98.625 121.875 C99.54191957 124.421785 100.4571787 126.96909333 101.36654663 129.51858521 C101.92963545 131.09723602 102.49704014 132.67435564 103.06924438 134.24972534 C104.15467044 137.29238951 105 139.74362502 105 143 C105.66 143 106.32 143 107 143 C107.38671875 141.11667969 107.38671875 141.11667969 107.78125 139.1953125 C109.019065 133.64029307 110.73196623 128.28066195 112.5 122.875 C112.84798141 121.79902054 113.19596283 120.72304108 113.55448914 119.61445618 C114.30661817 117.28974925 115.06051783 114.96561459 115.81600952 112.64199829 C117.64025522 107.03055139 119.45391032 101.41568672 121.26660728 95.80050087 C121.68690102 94.49861583 122.10733389 93.19677571 122.5279026 91.89497948 C125.70398536 82.0622414 128.84262027 72.21818774 131.94921875 62.36328125 C132.14963902 61.7275909 132.35005928 61.09190056 132.55655289 60.43694687 C134.67437024 53.71784176 136.78657412 46.9969821 138.89648438 40.27539062 C143.13098913 26.80389904 147.48156068 13.37903205 152 0 C155.96182109 0.86521918 158.97195794 2.67917441 162.375 4.8125 C189.05356339 21.09427031 217.00914545 33.76232708 247 42.5625 C263.55636787 47.44974327 275.40260235 54.51392713 284 70 C286.09059988 74.51774114 287.59005017 79.23221784 289 84 C289.52787109 85.68996094 289.52787109 85.68996094 290.06640625 87.4140625 C295.18359151 107.06919249 292.61437413 130.71437478 290.83529663 150.79873657 C290.69599736 152.42243929 290.57226726 154.04755891 290.4647522 155.67367554 C289.59888997 168.2618803 289.59888997 168.2618803 286.0065918 172.16699219 C283.40402269 173.77836512 280.85103643 174.89153585 278 176 C276.16153532 176.94065583 274.32957985 177.89412805 272.50390625 178.859375 C230.17062334 199.69971746 184.63856592 211.79589399 138 218 C136.23897949 218.2477417 136.23897949 218.2477417 134.44238281 218.50048828 C95.30378931 223.83255646 53.09640772 223.47888969 14 218 C12.73124023 217.83371094 11.46248047 217.66742188 10.15527344 217.49609375 C-31.95032797 211.95554098 -73.37275623 200.81119447 -112 183 C-113.05719238 182.52030762 -114.11438477 182.04061523 -115.20361328 181.54638672 C-118.44958524 180.05234636 -121.66450766 178.5061526 -124.875 176.9375 C-125.86346924 176.47923828 -126.85193848 176.02097656 -127.87036133 175.54882812 C-134.32654709 172.2665081 -134.32654709 172.2665081 -136.01025391 169.10009766 C-136.5944383 166.71463242 -136.82106525 164.44976702 -137 162 C-137.28384647 159.90624896 -137.56770129 157.81249905 -137.8515625 155.71875 C-139.3956321 141.91736531 -140.29625757 128.26108898 -140.3125 114.375 C-140.31590393 113.68929932 -140.31930786 113.00359863 -140.32281494 112.29711914 C-140.38034768 92.15944807 -136.63044651 70.96295666 -122 56 C-112.13124279 47.86420385 -101.0786 44.26774335 -89 40.6875 C-78.03043591 37.43390599 -67.51358742 33.50132006 -57 29 C-56.18998535 28.65743164 -55.3799707 28.31486328 -54.54541016 27.96191406 C-37.35433212 20.64931674 -20.33806382 12.27280732 -5.14453125 1.328125 C-3 0 -3 0 0 0 Z " fill="url(#myGradient)" transform="translate(180,291)"/>
<path d="M0 0 C5.44111317 4.92327996 10.26550955 9.4754092 12.75 16.48828125 C13.719375 16.52953125 14.68875 16.57078125 15.6875 16.61328125 C23.35916596 17.74465825 29.4537532 23.50258368 34.19140625 29.3125 C48.39301736 49.13780674 47.0370787 75.95753535 44.4375 98.98828125 C44.31987305 100.04909912 44.20224609 101.10991699 44.08105469 102.20288086 C43.19468697 109.4666756 41.67734835 116.43158496 39.75 123.48828125 C40.68199219 123.60429687 41.61398437 123.7203125 42.57421875 123.83984375 C46.66056809 124.6742029 48.11660165 126.32820323 50.75 129.48828125 C56.68168257 147.28332895 48.06303168 170.58418281 40.2421875 186.5703125 C36.66992075 192.95737583 36.66992075 192.95737583 32.7109375 195.2421875 C28.83731828 198.18061896 28.3177739 201.13774848 27.375 205.67578125 C23.58157968 221.16387783 16.52325954 233.99063449 6.75 246.48828125 C5.97269531 247.50019531 5.19539062 248.51210938 4.39453125 249.5546875 C-9.33404229 266.92216005 -29.97721205 280.61819888 -52.25 283.48828125 C-75.5686353 285.34792604 -97.2214726 279.13783499 -115.32421875 264.05078125 C-134.3039748 247.42765713 -149.26367985 225.35650915 -153.31640625 200.09765625 C-154.53589881 196.68920006 -156.08189474 196.07477464 -159.25 194.48828125 C-171.07765846 182.29100846 -177.02644449 157.64824879 -177.30859375 141.0390625 C-177.00006002 135.70208545 -176.51815355 130.8833843 -173.25 126.48828125 C-169.99533864 124.4541179 -168.0955896 123.48828125 -164.25 123.48828125 C-164.51554688 122.53050781 -164.78109375 121.57273438 -165.0546875 120.5859375 C-172.61217031 92.44895755 -171.93801358 64.90767047 -158.18359375 38.7890625 C-143.19437653 13.20140887 -116.11788785 -10.18413883 -87.25 -18.44921875 C-56.8998 -25.98685066 -24.19606388 -19.84447586 0 0 Z " fill="url(#myGradient)" transform="translate(318.25,20.51171875)"/>
</svg>
