<?xml version="1.0" encoding="UTF-8"?>
<svg version="1.1" xmlns="http://www.w3.org/2000/svg" width="512" height="512">
<defs><linearGradient id="myGradient" x1="0%" y1="0%" x2="100%" y2="0%"><stop offset="0%" stop-color="#68a2ec" /><stop offset="100%" stop-color="#c677db" /></linearGradient></defs>
<path d="M0 0 C25.3486837 19.79475862 43.75190403 55.51460997 52 86.1875 C52.20778076 86.95288086 52.41556152 87.71826172 52.62963867 88.50683594 C53.87145316 93.45670305 54.18485248 97.89922695 54 103 C54.66 103 55.32 103 56 103 C55.96003906 101.85917969 55.92007812 100.71835938 55.87890625 99.54296875 C55.88804915 94.91361471 56.73812824 90.76798609 57.9375 86.3125 C58.15567383 85.49797363 58.37384766 84.68344727 58.59863281 83.84423828 C66.95680271 54.2756655 86.50585438 13.48560449 113.875 -2.375 C130.61193251 -11.64444037 149.95368078 -13.87298589 168.42016602 -8.83398438 C185.60930608 -3.67137576 199.33681255 7.2759485 207.89135742 23.07910156 C216.05635407 38.99792355 218.38332746 58.4761897 212.875 75.75 C207.16301868 92.00749189 196.38074287 105.41283809 182 115 C183.84923317 115.01213028 183.84923317 115.01213028 185.73582458 115.02450562 C197.37358259 115.10210623 209.0112257 115.18988052 220.64883327 115.28752708 C226.63134393 115.33739938 232.61383771 115.3837302 238.59643555 115.421875 C244.37368124 115.45884232 250.15078249 115.50523326 255.92790413 115.55806351 C258.12818929 115.5765467 260.32850534 115.59167689 262.5288372 115.60334396 C265.61890215 115.62031057 268.70864066 115.64937051 271.79858398 115.68115234 C273.15265854 115.68439262 273.15265854 115.68439262 274.53408813 115.68769836 C285.48573581 115.83089388 295.15407686 118.06633317 303.08203125 126.11328125 C310.57568705 135.24765326 311.46019219 143.36251279 311.43359375 154.87890625 C311.43816389 156.21834068 311.44347192 157.55777278 311.44947815 158.89720154 C311.45836938 161.69190047 311.45603074 164.48631301 311.44604492 167.28100586 C311.43453751 170.84748982 311.45481251 174.4129862 311.48396206 177.97934055 C311.50237574 180.74104496 311.50202185 183.50251463 311.49632454 186.26426506 C311.49609844 188.21344581 311.51293665 190.16260472 311.53013611 192.11170959 C311.47688659 198.89446366 311.42544766 203.68380585 307 209 C301.53620321 212.7998076 297.64116157 213.57570188 291.07191467 213.48101807 C290.19613705 213.48443577 289.32035942 213.48785347 288.41804308 213.49137473 C285.4958872 213.49794114 282.57465854 213.47599806 279.65258789 213.45410156 C277.55306012 213.45297282 275.45353076 213.45360747 273.35400391 213.45587158 C267.66231251 213.45701859 261.97095873 213.43351103 256.27934575 213.40557575 C250.32829201 213.38056015 244.37723041 213.37821996 238.4261322 213.37347412 C227.16047153 213.36104485 215.89496624 213.32822375 204.62937397 213.28807616 C191.80239175 213.24335707 178.9754021 213.22137104 166.14836133 213.20129442 C139.76546824 213.15949117 113.38278815 213.08613923 87 213 C87 191.88 87 170.76 87 149 C65.88 149 44.76 149 23 149 C23 170.12 23 191.24 23 213 C-4.63359051 213.11287096 -32.26699436 213.20497497 -59.90075684 213.25906086 C-72.73161065 213.28484145 -85.56231106 213.31998953 -98.39306641 213.37719727 C-109.57646951 213.42703628 -120.75976152 213.45929206 -131.94327259 213.47044247 C-137.86479762 213.47696029 -143.78600482 213.49227662 -149.70742798 213.52865028 C-155.2822806 213.56261723 -160.85668481 213.57305134 -166.43163109 213.56553841 C-168.47624334 213.56691262 -170.52087076 213.57684067 -172.56539345 213.59602737 C-175.36136341 213.62097635 -178.15564966 213.61489849 -180.95166016 213.60127258 C-182.15986404 213.62311889 -182.15986404 213.62311889 -183.39247608 213.64540654 C-189.31068572 213.56766824 -193.44593431 211.80845603 -198 208 C-200.74090242 203.93340785 -201.37884542 200.73079662 -201.40405273 195.87792969 C-201.41673691 194.68939392 -201.42942108 193.50085815 -201.44248962 192.27630615 C-201.43955399 191.00434387 -201.43661835 189.73238159 -201.43359375 188.421875 C-201.43816241 187.08676896 -201.44347001 185.75166527 -201.44947815 184.41656494 C-201.45839103 181.62250196 -201.4560096 178.82872503 -201.44604492 176.03466797 C-201.43459307 172.47962792 -201.45471607 168.92558685 -201.48396206 165.37067795 C-201.50244694 162.61313751 -201.50200686 159.85583066 -201.49632454 157.09824371 C-201.49609946 155.15862307 -201.5128963 153.21902402 -201.53013611 151.27947998 C-201.449499 140.954641 -199.40347718 132.50359449 -192.19140625 124.82421875 C-183.10491603 117.26024204 -173.50009891 115.86625661 -162.13916016 115.79467773 C-161.16292694 115.78477814 -160.18669373 115.77487854 -159.18087769 115.76467896 C-155.96696362 115.73319258 -152.7530348 115.70835751 -149.5390625 115.68359375 C-147.30560938 115.66301311 -145.07216006 115.64201635 -142.8387146 115.62062073 C-136.96977826 115.5655147 -131.10080744 115.51605494 -125.23181152 115.46777344 C-119.23914534 115.41747455 -113.24652902 115.36183231 -107.25390625 115.30664062 C-95.5026468 115.19919937 -83.751344 115.09772338 -72 115 C-72.68842987 114.45123199 -73.37685974 113.90246399 -74.08615112 113.33706665 C-74.98826324 112.61691376 -75.89037537 111.89676086 -76.81982422 111.15478516 C-77.71450409 110.44101715 -78.60918396 109.72724915 -79.53097534 108.99185181 C-92.6993742 98.36842649 -102.33090953 83.94941953 -105 67 C-106.85013334 46.57264886 -103.53332021 28.56310268 -90.6875 12.125 C-68.07209012 -13.89036171 -28.70337679 -19.18594133 0 0 Z M-63 31 C-65.31768152 33.85212406 -67.22162007 36.78672785 -69 40 C-69.34160156 40.60328125 -69.68320313 41.2065625 -70.03515625 41.828125 C-73.70120226 49.67175832 -73.33689077 60.25658552 -70.5625 68.3125 C-60.41678063 89.55180871 -30.59702359 103.08462189 -9.671875 110.86572266 C-1.69098619 113.60915319 6.19278565 116.12955515 14.6875 116.1875 C16.11642578 116.20876953 16.11642578 116.20876953 17.57421875 116.23046875 C20.18212282 116.24258197 20.18212282 116.24258197 22 114 C22.85609092 107.96689958 21.64247539 102.05385114 20.0625 96.25 C19.84432617 95.44071045 19.62615234 94.6314209 19.40136719 93.79760742 C12.77237159 70.48682915 -1.19139876 37.65799046 -23.078125 24.9375 C-36.31566141 18.48016516 -52.45304795 20.14001056 -63 31 Z M121 35 C104.31197962 54.76546901 87.92033299 85.79279836 87.734375 112.15234375 C87.8470939 114.24662023 87.8470939 114.24662023 90 116 C113.81080222 119.85636345 144.27499684 100.96707487 162.79199219 87.91748047 C172.1931319 81.07382347 178.27137743 74.1858677 182 63 C182.88449668 51.03754489 181.47966307 41.40406994 173.8359375 31.8203125 C166.97829975 25.02103763 158.28775222 21.72476728 148.75 21.625 C136.49974093 21.85252192 129.30807305 26.1298296 121 35 Z M54 114 C54 114.66 54 115.32 54 116 C54.66 116 55.32 116 56 116 C56 115.34 56 114.68 56 114 C55.34 114 54.68 114 54 114 Z " fill="url(#myGradient)" transform="translate(201,27)"/>
<path d="M0 0 C63.36 0 126.72 0 192 0 C192.24181821 49.92202505 192.24181821 49.92202505 192.29296875 70.86328125 C192.32855204 85.31507156 192.37035299 99.76665176 192.45263672 114.21826172 C192.51253856 124.74394748 192.55117291 135.26946258 192.56453097 145.79531407 C192.5723364 151.36604398 192.59061308 156.93628574 192.63438034 162.50685883 C192.67529154 167.75675915 192.68763164 173.00597308 192.67864609 178.25601768 C192.68028846 180.17640864 192.69211257 182.09682401 192.71523285 184.01707649 C192.86223634 196.86318652 191.68612402 206.81356223 182.875 216.9375 C173.48595626 225.30587341 162.18430652 225.71139551 150.30761719 225.56762695 C148.63410119 225.56609214 146.96058196 225.56676808 145.28706741 225.56945324 C140.83919865 225.57057373 136.39201391 225.54177274 131.94430542 225.50640106 C127.75793501 225.47774828 123.57172393 225.47657592 119.38525391 225.47302246 C107.17341338 225.44687321 94.96169784 225.37706681 82.75 225.3125 C41.78875 225.1578125 41.78875 225.1578125 0 225 C0 150.75 0 76.5 0 0 Z " fill="url(#myGradient)" transform="translate(288,271)"/>
<path d="M0 0 C63.36 0 126.72 0 192 0 C192 74.25 192 148.5 192 225 C164.6925 225.103125 137.385 225.20625 109.25 225.3125 C100.64067383 225.35802002 92.03134766 225.40354004 83.16113281 225.45043945 C72.61474609 225.47302246 72.61474609 225.47302246 67.67108154 225.47721863 C64.23227676 225.48186035 60.79386137 225.50053058 57.35516357 225.52787781 C52.95752957 225.56238351 48.56045508 225.5724176 44.16269827 225.56536138 C42.55584749 225.56683505 40.9489755 225.57662598 39.34224176 225.59607565 C27.81252832 225.72906706 17.47547439 224.45947037 8.5625 216.375 C-0.85282942 205.76681887 -0.70193151 194.71249193 -0.56762695 181.30004883 C-0.56621468 179.31815629 -0.56701197 177.33626114 -0.56983948 175.35437012 C-0.57126801 170.00165426 -0.54196932 164.64950407 -0.50696969 159.29691911 C-0.47561226 153.69290461 -0.47276806 148.08887568 -0.46684265 142.48478699 C-0.45133177 131.88502989 -0.41034055 121.2855321 -0.3600952 110.68588895 C-0.29363902 96.3538819 -0.26674495 82.02180343 -0.23758411 67.68968105 C-0.19063676 45.12625998 -0.09100586 22.563386 0 0 Z " fill="url(#myGradient)" transform="translate(32,271)"/>
</svg>
