<?xml version="1.0" encoding="UTF-8"?>
<svg version="1.1" xmlns="http://www.w3.org/2000/svg" width="512" height="512">
<defs><linearGradient id="myGradient" x1="0%" y1="0%" x2="100%" y2="0%"><stop offset="0%" stop-color="#68a2ec" /><stop offset="100%" stop-color="#c677db" /></linearGradient></defs>
<path d="M0 0 C36.3 0 72.6 0 110 0 C111.98 24.75 111.98 24.75 114 50 C119.03216842 87.87368866 127.88564773 123.48141397 139 160 C83.56 160 28.12 160 -29 160 C-26.03 150.1 -23.06 140.2 -20 130 C-18.54666842 124.72903168 -17.11857396 119.4910985 -15.8125 114.1875 C-15.65390503 113.54565765 -15.49531006 112.90381531 -15.33190918 112.24252319 C-9.97814016 90.44771221 -6.16641299 68.49753614 -3.75 46.1875 C-3.6727771 45.47767975 -3.5955542 44.7678595 -3.51599121 44.03652954 C-1.95136998 29.38344672 -1.05037377 14.70523274 0 0 Z " fill="url(#myGradient)" transform="translate(201,231)"/>
<path d="M0 0 C1.16711901 -0.00765109 2.33423802 -0.01530219 3.53672427 -0.02318513 C6.75426397 -0.04017663 9.97121539 -0.03940722 13.18876994 -0.03082395 C16.66744957 -0.02587142 20.14602379 -0.04394009 23.62466431 -0.05889893 C30.43144256 -0.08434806 37.23806285 -0.08798591 44.04488067 -0.0832984 C49.58043152 -0.07972645 55.11593458 -0.0832433 60.65147972 -0.09174728 C61.83508357 -0.09353285 61.83508357 -0.09353285 63.0425986 -0.09535449 C64.64581803 -0.0977781 66.24903745 -0.10020637 67.85225686 -0.10263924 C82.87481813 -0.12437337 97.89728954 -0.12007347 112.91985586 -0.10786955 C126.64619249 -0.09753459 140.3722451 -0.12003589 154.09852556 -0.15806599 C168.21049015 -0.1968633 182.32232051 -0.2133276 196.43433875 -0.20581949 C204.35001612 -0.20200126 212.26545186 -0.20691328 220.18108559 -0.23524857 C226.92050375 -0.25913024 233.65953158 -0.26182642 240.39895538 -0.23766823 C243.83358524 -0.2259273 247.26750212 -0.22358661 250.70208359 -0.24767303 C254.43558888 -0.26865039 258.16719639 -0.25237629 261.90063477 -0.22705078 C262.9723528 -0.24179935 264.04407084 -0.25654792 265.14826518 -0.27174342 C273.81658046 -0.14860328 281.51671854 2.5140369 288.14913207 8.26187742 C289.72143471 9.9188788 290.92516876 11.58927507 292.14079285 13.52139282 C292.55071472 14.11951782 292.9606366 14.71764282 293.38298035 15.33389282 C298.04638065 23.56720646 296.14079285 30.37848051 296.14079285 40.52139282 C187.24079285 40.52139282 78.34079285 40.52139282 -33.85920715 40.52139282 C-33.85920715 17.54996425 -33.85920715 17.54996425 -26.21858215 8.59951782 C-18.63067407 1.43709991 -10.09379506 -0.07074807 0 0 Z " fill="url(#myGradient)" transform="translate(124.85920715332031,470.4786071777344)"/>
<path d="M0 0 C0.92210587 -0.00765109 1.84421173 -0.01530219 2.7942602 -0.02318513 C5.86174948 -0.04370337 8.92848006 -0.03588865 11.99601746 -0.02792358 C14.20445442 -0.03662452 16.41288536 -0.04699305 18.62130737 -0.05889893 C24.60492871 -0.08563116 30.58829701 -0.08684155 36.57196641 -0.08177233 C41.57427325 -0.07962944 46.57652925 -0.0894086 51.57882518 -0.09898317 C64.05898214 -0.12242414 76.53901659 -0.12073295 89.01917412 -0.10786955 C99.83560439 -0.09753658 110.65167413 -0.12003275 121.46803311 -0.15806599 C132.59676313 -0.196895 143.72534681 -0.21274034 154.85414809 -0.20581949 C161.0931178 -0.20220011 167.33175737 -0.20740251 173.57067299 -0.23524857 C179.44044094 -0.26046764 185.30948953 -0.25645923 191.1792469 -0.23042679 C193.32698056 -0.22570942 195.47476534 -0.23111382 197.62244034 -0.24767303 C220.56986644 -0.41177381 220.56986644 -0.41177381 230.38897419 8.26189232 C231.99601513 9.91342569 233.19261456 11.57276714 234.41862488 13.52139282 C234.82854675 14.11951782 235.23846863 14.71764282 235.66081238 15.33389282 C240.32421268 23.56720646 238.41862488 30.37848051 238.41862488 40.52139282 C149.31862488 40.52139282 60.21862488 40.52139282 -31.58137512 40.52139282 C-31.58137512 17.54996425 -31.58137512 17.54996425 -23.94075012 8.59951782 C-17.14060574 2.18068995 -9.13604486 -0.08172776 0 0 Z " fill="url(#myGradient)" transform="translate(152.5813751220703,410.4786071777344)"/>
<path d="M0 0 C0.85722656 0.72445312 1.71445313 1.44890625 2.59765625 2.1953125 C4.04978516 3.41347656 4.04978516 3.41347656 5.53125 4.65625 C6.57462468 5.54379385 7.61758407 6.43182612 8.66015625 7.3203125 C9.73404001 8.22956245 10.80826254 9.13841245 11.8828125 10.046875 C13.52959095 11.43986741 15.17574889 12.83355409 16.81982422 14.22973633 C21.12802218 17.88538964 25.4894375 21.47169635 29.87109375 25.0390625 C34.8312396 29.09610056 39.74376415 33.21044895 44.66015625 37.3203125 C47.65215698 33.70317857 49.58246927 29.71411795 51.63671875 25.52734375 C52.007435 24.78070969 52.37815125 24.03407562 52.76010132 23.26481628 C53.93895221 20.88935763 55.11239623 18.51128334 56.28515625 16.1328125 C57.46576771 13.74399399 58.64753747 11.35576646 59.83163452 8.96867371 C60.56725296 7.48515343 61.30073058 6.00056937 62.03189087 4.5148468 C64.54844506 -0.56797631 64.54844506 -0.56797631 65.66015625 -1.6796875 C67.34624591 -1.75174261 69.03516284 -1.76354818 70.72265625 -1.7421875 C71.64175781 -1.73316406 72.56085938 -1.72414062 73.5078125 -1.71484375 C74.21808594 -1.70324219 74.92835938 -1.69164062 75.66015625 -1.6796875 C82.52177847 11.22600195 89.17776054 24.22003693 95.66015625 37.3203125 C100.77495318 33.56791825 105.69451541 29.67894253 110.47265625 25.5078125 C115.53363521 21.12893901 120.65400443 16.84174102 125.8515625 12.625 C129.7214851 9.44940287 133.53218751 6.20541136 137.33422852 2.94897461 C143.94623691 -2.68787778 143.94623691 -2.68787778 146.703125 -2.65625 C148.68880208 -2.33072917 150.67447917 -2.00520833 152.66015625 -1.6796875 C151.33538913 4.82498916 149.56481003 11.1071876 147.63916016 17.45825195 C143.81568178 30.07823887 140.48887906 42.72493546 137.78515625 55.6328125 C137.64631012 56.29112061 137.50746399 56.94942871 137.3644104 57.62768555 C135.16019226 68.15149621 133.42934721 78.70516674 131.66015625 89.3203125 C91.40015625 89.3203125 51.14015625 89.3203125 9.66015625 89.3203125 C8.01015625 79.7503125 6.36015625 70.1803125 4.66015625 60.3203125 C3.459707 54.71581991 2.24018175 49.18325018 0.84765625 43.6328125 C0.68362305 42.96481628 0.51958984 42.29682007 0.35058594 41.60858154 C-2.80834924 28.74520725 -6.59056756 16.10680406 -10.73242188 3.52392578 C-11.33984375 1.3203125 -11.33984375 1.3203125 -11.33984375 -1.6796875 C-6.60615968 -2.86310852 -4.02933614 -2.89251175 0 0 Z " fill="url(#myGradient)" transform="translate(185.33984375,61.6796875)"/>
<path d="M0 0 C0.75100452 -0.00765109 1.50200903 -0.01530219 2.27577126 -0.02318513 C4.77610746 -0.04371697 7.27551402 -0.03588657 9.77590942 -0.02792358 C11.5751327 -0.03662379 13.37434856 -0.04699209 15.17355347 -0.05889893 C20.04970459 -0.08563852 24.92554529 -0.08684086 29.80175543 -0.08177233 C33.87722195 -0.07963004 37.95262603 -0.089407 42.02807915 -0.09898317 C51.64556765 -0.12115975 61.26289992 -0.12205621 70.88040161 -0.10995483 C80.79113578 -0.09787593 90.70130203 -0.1224981 100.61193931 -0.16509497 C109.13108331 -0.2003602 117.65004682 -0.21232449 126.1692611 -0.20581949 C131.25291969 -0.20219854 136.33617318 -0.20741783 141.41976547 -0.23524857 C146.20202509 -0.26045083 150.98340141 -0.25647606 155.76564789 -0.23042679 C157.51633888 -0.22570575 159.26709247 -0.23112733 161.01771164 -0.24767303 C176.97030733 -0.38752406 176.97030733 -0.38752406 183.6402607 4.94210243 C188.62550675 9.8839227 189.50913567 13.48484476 189.85842896 20.39639282 C189.67877817 26.21955631 188.61199656 29.94257508 185.22952271 34.65420532 C180.08940401 39.46237898 175.41274662 41.11894042 168.46685791 41.04278564 C167.34035114 41.05426229 167.34035114 41.05426229 166.19108665 41.06597078 C163.69075045 41.08650261 161.19134389 41.07867221 158.69094849 41.07070923 C156.89172521 41.07940943 155.09250935 41.08977773 153.29330444 41.10168457 C148.41715332 41.12842416 143.54131262 41.1296265 138.66510248 41.12455797 C134.58963596 41.12241568 130.51423188 41.13219264 126.43877876 41.14176881 C116.82129026 41.16394539 107.20395799 41.16484186 97.5864563 41.15274048 C87.67572213 41.14066157 77.76555588 41.16528374 67.8549186 41.20788062 C59.3357746 41.24314584 50.81681109 41.25511013 42.29759681 41.24860513 C37.21393822 41.24498418 32.13068473 41.25020348 27.04709244 41.27803421 C22.26483282 41.30323648 17.4834565 41.2992617 12.70121002 41.27321243 C10.95051903 41.2684914 9.19976544 41.27391297 7.44914627 41.29045868 C-8.50344942 41.43030971 -8.50344942 41.43030971 -15.17340279 36.10068321 C-20.15864884 31.15886295 -21.04227776 27.55794089 -21.39157104 20.64639282 C-21.21192026 14.82322934 -20.14513865 11.10021057 -16.76266479 6.38858032 C-11.6225461 1.58040667 -6.94588871 -0.07615478 0 0 Z " fill="url(#myGradient)" transform="translate(171.76657104492188,170.47860717773438)"/>
<path d="M0 0 C4.68796317 2.8950501 8.77605467 6.42344712 10.234375 11.89453125 C11.16656452 18.74158704 11.3930195 24.99387098 7.671875 31.01953125 C3.66347868 35.99068326 0.31000422 38.47580101 -6.0078125 39.3359375 C-13.1275177 39.69575056 -18.34453314 39.19135672 -23.98828125 34.640625 C-29.08369757 29.63479842 -30.03494232 26.05750776 -30.390625 19.01953125 C-30.17838344 12.13997715 -28.58962241 7.80486419 -23.765625 2.89453125 C-17.29271618 -2.6344117 -7.84970384 -3.13766411 0 0 Z " fill="url(#myGradient)" transform="translate(350.765625,2.10546875)"/>
<path d="M0 0 C4.68796317 2.8950501 8.77605467 6.42344712 10.234375 11.89453125 C11.16656452 18.74158704 11.3930195 24.99387098 7.671875 31.01953125 C3.66347868 35.99068326 0.31000422 38.47580101 -6.0078125 39.3359375 C-13.1275177 39.69575056 -18.34453314 39.19135672 -23.98828125 34.640625 C-29.08369757 29.63479842 -30.03494232 26.05750776 -30.390625 19.01953125 C-30.17838344 12.13997715 -28.58962241 7.80486419 -23.765625 2.89453125 C-17.29271618 -2.6344117 -7.84970384 -3.13766411 0 0 Z " fill="url(#myGradient)" transform="translate(265.765625,2.10546875)"/>
<path d="M0 0 C4.68796317 2.8950501 8.77605467 6.42344712 10.234375 11.89453125 C11.16656452 18.74158704 11.3930195 24.99387098 7.671875 31.01953125 C3.66347868 35.99068326 0.31000422 38.47580101 -6.0078125 39.3359375 C-13.1275177 39.69575056 -18.34453314 39.19135672 -23.98828125 34.640625 C-29.08369757 29.63479842 -30.03494232 26.05750776 -30.390625 19.01953125 C-30.17838344 12.13997715 -28.58962241 7.80486419 -23.765625 2.89453125 C-17.29271618 -2.6344117 -7.84970384 -3.13766411 0 0 Z " fill="url(#myGradient)" transform="translate(180.765625,2.10546875)"/>
</svg>
