<?xml version="1.0" encoding="UTF-8"?>
<svg version="1.1" xmlns="http://www.w3.org/2000/svg" width="512" height="512">
<defs><linearGradient id="myGradient" x1="0%" y1="0%" x2="100%" y2="0%"><stop offset="0%" stop-color="#68a2ec" /><stop offset="100%" stop-color="#c677db" /></linearGradient></defs>
<path d="M0 0 C-0.57919054 2.60078828 -1.22385664 4.41973121 -2.5 6.8125 C-5.95711715 14.15887394 -4.63098514 20.24923504 -2.875 27.82421875 C-2.64925293 28.84804153 -2.42350586 29.87186432 -2.19091797 30.92671204 C-1.47200765 34.18297023 -0.73750384 37.43540652 0 40.6875 C0.73638326 43.95051421 1.46911537 47.21415088 2.19091797 50.48042297 C2.63948055 52.50907004 3.09654778 54.53585936 3.56298828 56.56047058 C3.76649902 57.47854996 3.97000977 58.39662933 4.1796875 59.3425293 C4.36257324 60.14748337 4.54545898 60.95243744 4.73388672 61.78178406 C5.12161343 65.01372188 4.58998781 67.14451767 2.75 69.8125 C1 71 1 71 -1.24609375 70.796875 C-4.56231089 69.83728876 -6.92545636 68.33131168 -9.8125 66.4375 C-27.93848724 54.96584953 -47.74335937 47.2471954 -69 44 C-70.16144531 43.81695312 -71.32289063 43.63390625 -72.51953125 43.4453125 C-89.52340033 41.40704515 -108.36599322 41.79808226 -125 46 C-125.78987305 46.19867676 -126.57974609 46.39735352 -127.39355469 46.60205078 C-151.69915189 52.92719157 -172.78485743 63.92290085 -192 80 C-193.30130859 81.08667969 -193.30130859 81.08667969 -194.62890625 82.1953125 C-199.55208268 86.44373886 -203.90036962 90.95694003 -208 96 C-208.76054687 96.92296875 -209.52109375 97.8459375 -210.3046875 98.796875 C-236.62038199 131.41628952 -247.00839002 171.23215921 -243.7890625 212.71826172 C-243.23257515 217.90476596 -242.24706577 222.93838011 -241 228 C-240.79600586 228.8343457 -240.59201172 229.66869141 -240.38183594 230.52832031 C-233.42783064 258.17226279 -220.64409509 281.22259174 -201 302 C-200.30390625 302.74894531 -199.6078125 303.49789063 -198.890625 304.26953125 C-173.21686321 331.02084144 -134.71757474 347.12857565 -97.828125 348.203125 C-54.97673629 348.80877125 -15.99605234 334.32108457 15.15625 304.77734375 C43.5084858 277.08717939 60.71289242 238.43845999 61.24145508 198.69189453 C61.32890108 167.94587968 54.08852309 134.74596496 34.9375 109.8125 C33 107 33 107 33.19140625 105.01171875 C34.14039202 102.6507155 35.0060535 101.57817788 37 100 C47.26497083 98.90790341 59.29730682 103.36226856 69.26806641 105.63696289 C71.71384665 106.19243143 74.16149711 106.73901898 76.609375 107.28515625 C77.34806824 107.45700943 78.08676147 107.62886261 78.84783936 107.80592346 C85.08842948 109.19564932 90.83764989 110.00819217 96.75 107.0625 C99.1855403 105.87453541 101.41893234 104.86035589 104 104 C127.76498794 160.69819458 130.86555468 219.97003841 107.92089844 277.71582031 C95.33746584 308.28529338 74.87911155 338.15039776 49 359 C47.94999688 359.88479526 46.900575 360.7702805 45.8515625 361.65625 C31.57404763 373.55874015 15.91461683 383.30647485 -1 391 C-1.73154297 391.33483398 -2.46308594 391.66966797 -3.21679688 392.01464844 C-32.67157449 405.34062047 -65.550139 412.67967342 -98 411 C-99.21913086 410.9383667 -99.21913086 410.9383667 -100.46289062 410.87548828 C-156.36996317 407.79252251 -206.40345673 385.41588271 -246 346 C-246.81162598 345.1944165 -246.81162598 345.1944165 -247.63964844 344.37255859 C-266.30518124 325.60641892 -280.86946785 302.39749184 -291 278 C-291.28681641 277.31357422 -291.57363281 276.62714844 -291.86914062 275.91992188 C-313.1093165 224.13831663 -312.22377446 164.37884276 -291.14794922 112.70605469 C-282.42411007 92.14139429 -270.84178217 72.75685084 -256 56 C-255.31035156 55.20207031 -254.62070313 54.40414062 -253.91015625 53.58203125 C-243.56857833 41.81918764 -232.5952686 31.30954636 -220 22 C-219.14921875 21.36578125 -218.2984375 20.7315625 -217.421875 20.078125 C-154.78449742 -25.13693564 -69.81749125 -33.0585186 0 0 Z " fill="url(#myGradient)" transform="translate(323,85)"/>
<path d="M0 0 C0.60610107 0.36834961 1.21220215 0.73669922 1.83666992 1.11621094 C3.5 2.19921875 3.5 2.19921875 6 4.3125 C6 8.3125 6 8.3125 4.89904785 9.89447021 C4.38386597 10.40076965 3.86868408 10.90706909 3.33789062 11.42871094 C2.46698792 12.29916046 2.46698792 12.29916046 1.57849121 13.18719482 C0.94415161 13.80088928 0.30981201 14.41458374 -0.34375 15.046875 C-0.9874353 15.68490051 -1.63112061 16.32292603 -2.29431152 16.98028564 C-4.35368583 19.01725781 -6.42652623 21.03989136 -8.5 23.0625 C-9.89804446 24.44048458 -11.29519166 25.81938012 -12.69140625 27.19921875 C-16.11727956 30.58097364 -19.55529576 33.94993287 -23 37.3125 C-27.24541409 35.93152386 -31.20362866 34.32385186 -35.25 32.4375 C-57.65033767 22.65068223 -83.44910343 22.18769527 -106.28125 30.890625 C-130.43873881 40.67782211 -148.35767782 58.32223162 -159.25 82 C-168.67623158 105.38529584 -169.02072853 131.18566923 -159.62231445 154.6418457 C-149.78460771 177.71213533 -131.56630067 196.27068925 -108.26879883 205.78222656 C-83.66876952 215.2902316 -58.31082909 214.59250773 -34 204.3125 C-25.94069759 200.49733759 -18.7820263 196.08978167 -12 190.3125 C-11.26265625 189.71953125 -10.5253125 189.1265625 -9.765625 188.515625 C4.58287681 176.54204762 14.76000734 158.42031397 19 140.3125 C19.22300781 139.38824219 19.44601562 138.46398437 19.67578125 137.51171875 C23.86754567 116.89508152 20.34090073 96.36190088 12 77.3125 C11.401875 76.41917969 10.80375 75.52585937 10.1875 74.60546875 C9.795625 73.84878906 9.40375 73.09210938 9 72.3125 C10.1207519 69.3819947 11.67884576 67.38738333 13.88916016 65.19628906 C14.4696109 64.61598938 15.05006165 64.0356897 15.64810181 63.43780518 C16.27211884 62.82411072 16.89613586 62.21041626 17.5390625 61.578125 C18.50034561 60.62108673 18.50034561 60.62108673 19.48104858 59.64471436 C21.52437821 57.61255931 23.57455982 55.58747782 25.625 53.5625 C27.0134786 52.1840547 28.4015049 50.80515364 29.7890625 49.42578125 C33.18748697 46.04938106 36.59207254 42.67930712 40 39.3125 C44.73014741 43.81884058 47.47115233 48.24957672 50.4375 54 C51.15873047 55.3924292 51.15873047 55.3924292 51.89453125 56.81298828 C68.79807245 90.2945633 70.31572132 129.03253284 58.734375 164.4765625 C46.49979254 199.75341284 20.24049597 227.85409713 -13 244.3125 C-45.58568849 259.85600187 -83.88265331 261.74545806 -117.95751953 250.05126953 C-152.17536789 237.67460098 -181.38960308 213.2933527 -197.33691406 180.25732422 C-210.77156645 151.25813554 -215.56904562 118.70615969 -208 87.3125 C-207.83371094 86.61543945 -207.66742188 85.91837891 -207.49609375 85.20019531 C-202.2200618 63.89088849 -192.30548896 44.94132568 -178 28.3125 C-177.19046875 27.35730469 -176.3809375 26.40210938 -175.546875 25.41796875 C-132.67157294 -23.97074383 -55.17259415 -34.25042241 0 0 Z " fill="url(#myGradient)" transform="translate(304,161.6875)"/>
<path d="M0 0 C-0.83020423 6.15624285 -6.63738519 10.14899079 -10.8125 14.3125 C-11.72837891 15.25673828 -12.64425781 16.20097656 -13.58789062 17.17382812 C-14.47283203 18.06134766 -15.35777344 18.94886719 -16.26953125 19.86328125 C-17.48539917 21.08978394 -17.48539917 21.08978394 -18.72583008 22.34106445 C-21 24 -21 24 -23.13549805 23.82495117 C-23.75078369 23.55271729 -24.36606934 23.2804834 -25 23 C-31.78804106 20.18544639 -39.31449309 19.82348999 -46.3125 22.1875 C-54.35524551 25.76570106 -57.84017055 30.9740332 -61 39 C-62.68903409 45.41832954 -61.80157544 51.22752811 -58.9609375 57.17578125 C-55.33827894 63.38104479 -51.06902522 67.49948897 -44.1875 69.875 C-36.88009718 71.77558011 -31.69284283 71.09950181 -25.1875 67.3125 C-19.94569343 64.44295737 -16.49477767 65.22548196 -10.82421875 66.49609375 C-4.14011253 67.68869361 1.52252026 64.66543021 7 61 C9.2397752 59.1022762 11.26854694 57.03812225 13.30078125 54.921875 C13.86323044 54.35043762 14.42567963 53.77900024 15.00517273 53.19024658 C16.7817129 51.38393493 18.54786993 49.56794288 20.3125 47.75 C22.09592746 45.91877428 23.88154026 44.08989791 25.67338562 42.26690674 C26.78368473 41.13680753 27.88901517 40.00180105 28.98884583 38.86151123 C30.28829539 37.53639051 31.63979479 36.26267806 33 35 C33.66 35 34.32 35 35 35 C44.18431074 56.52686273 46.44925472 79.08048307 37.75 101.1875 C28.35942324 121.9412303 13.57694942 137.87373354 -7.94335938 146.26855469 C-27.99461126 153.39979289 -49.67220771 153.21279957 -69.17578125 144.359375 C-70.10777344 143.91078125 -71.03976563 143.4621875 -72 143 C-72.90105469 142.59265625 -73.80210937 142.1853125 -74.73046875 141.765625 C-92.69844065 132.95016981 -106.04978827 115.51696703 -112.73632812 96.95605469 C-119.25732907 76.76041745 -117.52325642 54.46027048 -108.1875 35.5 C-105.05219834 29.48230186 -101.59372857 24.02467716 -97 19 C-96.19949219 18.10796875 -95.39898437 17.2159375 -94.57421875 16.296875 C-70.51469218 -9.19020669 -31.28844877 -15.92866483 0 0 Z M-74.59375 93.4453125 C-81.74889324 101.04184444 -88 112.23408691 -88 123 C-54.01 123 -20.02 123 15 123 C10.86441925 105.07915007 4.68097854 93.50748901 -10.8671875 83.7265625 C-32.48140839 71.81448565 -57.2113626 76.61236838 -74.59375 93.4453125 Z " fill="url(#myGradient)" transform="translate(268,209)"/>
<path d="M0 0 C3.33390389 1.81849303 4.40804683 2.94777102 5.75 6.5 C5.81192142 11.32420333 4.70653527 13.94527181 1.55591679 17.4351635 C0.10749135 18.91007643 -1.35775761 20.36857783 -2.8356781 21.81393433 C-3.63958121 22.62366955 -4.44348432 23.43340477 -5.27174813 24.26767743 C-7.97234986 26.98051512 -10.69386674 29.67134252 -13.41577148 32.36279297 C-15.35648921 34.30012133 -17.29267505 36.24195619 -19.22906494 38.18360901 C-23.94650219 42.90845464 -28.67964051 47.61726466 -33.41808682 52.32102995 C-38.93300653 57.79695823 -44.43135376 63.28940139 -49.9288497 68.78281273 C-59.73501595 78.58072664 -69.55486775 88.36480587 -79.38305664 98.140625 C-88.92587431 107.63263895 -98.46095447 117.13232598 -107.98657227 126.64160156 C-108.57361686 127.22763522 -109.16066146 127.81366888 -109.76549529 128.41746114 C-112.12493835 130.77288452 -114.48435282 133.12833653 -116.84372326 135.48383265 C-127.00934869 145.63244263 -137.18067934 155.77533415 -147.35333076 165.91690093 C-149.00232442 167.5608993 -150.65122243 169.20499355 -152.30011249 170.84909582 C-158.5570085 177.08743664 -164.81687899 183.32276914 -171.08099365 189.55386162 C-172.98246982 191.44548352 -174.88258515 193.33844254 -176.78209114 195.23204613 C-179.364837 197.80638153 -181.95063796 200.37760648 -184.53733826 202.94796753 C-185.29734727 203.70679666 -186.05735628 204.4656258 -186.84039587 205.24744976 C-187.52999019 205.93135284 -188.21958452 206.61525593 -188.93007565 207.31988335 C-189.52721337 207.91414836 -190.1243511 208.50841337 -190.73958391 209.12068641 C-193.67008664 211.79682464 -196.36474329 211.84770513 -200.2734375 211.76953125 C-202.25 211.5 -202.25 211.5 -204.75 210 C-206.42514248 207.20809586 -207.13622639 204.99698986 -206.92084312 201.71922398 C-203.61776727 190.79228015 -187.05354133 179.13842036 -179.17333984 171.24633789 C-177.34084667 169.40757087 -175.50854068 167.56861728 -173.67640686 165.72949219 C-168.20772136 160.24119328 -162.73432335 154.75760616 -157.26028723 149.27464476 C-155.1956007 147.20644175 -153.13122899 145.13792466 -151.06687342 143.0693913 C-141.95621404 133.94029551 -132.84421414 124.81254021 -123.72818565 115.68880558 C-121.50562982 113.46434024 -119.28307944 111.23986945 -117.06054688 109.01538086 C-116.23206796 108.18617634 -116.23206796 108.18617634 -115.3868521 107.34022021 C-106.41943875 98.36448795 -97.46058978 89.38025755 -88.5052387 80.392492 C-79.29489393 71.14908315 -70.07704234 61.91321487 -60.85174906 52.68472475 C-55.67837017 47.50918224 -50.50832269 42.3304055 -45.34666061 37.14317513 C-40.49825119 32.27080198 -35.6397355 27.40871293 -30.77418327 22.55345917 C-28.99011692 20.76988947 -27.20947391 18.98288794 -25.4325161 17.19223595 C-23.00763481 14.74971438 -20.57075555 12.31982538 -18.13046265 9.89271545 C-17.42938428 9.18066784 -16.72830592 8.46862023 -16.00598276 7.73499542 C-11.37358298 3.16284301 -6.91592456 -1.06398839 0 0 Z " fill="url(#myGradient)" transform="translate(457.25,49.5)"/>
<path d="M0 0 C2 0.9375 2 0.9375 3.02636719 3.58544922 C4.70141617 9.35235559 5.96162611 15.19920587 7.25 21.0625 C7.54390625 22.33738281 7.8378125 23.61226562 8.140625 24.92578125 C8.5428125 26.76076172 8.5428125 26.76076172 8.953125 28.6328125 C9.32679199 30.3036792 9.32679199 30.3036792 9.70800781 32.00830078 C10.03699 35.30857528 9.66815287 36.16407952 8 38.9375 C6.46324921 40.72593307 6.46324921 40.72593307 4.62194824 42.56951904 C3.92371445 43.27339249 3.22548065 43.97726593 2.50608826 44.70246887 C1.7403096 45.46419907 0.97453094 46.22592926 0.18554688 47.01074219 C-0.62107895 47.82087265 -1.42770477 48.63100311 -2.2587738 49.46568298 C-4.92792007 52.14363638 -7.60432108 54.8142029 -10.28125 57.484375 C-12.13477398 59.33924565 -13.98800093 61.19441315 -15.84094238 63.04986572 C-19.7245177 66.93707731 -23.61228631 70.82005756 -27.50244141 74.70068359 C-32.00396386 79.19130684 -36.49821531 83.68911051 -40.98878717 88.19068217 C-45.30699835 92.51904799 -49.6307943 96.84178875 -53.95701599 101.16214752 C-55.79897598 103.00276924 -57.63944016 104.84488907 -59.47840881 106.68849945 C-62.0426605 109.25780262 -64.61318786 111.82065334 -67.18554688 114.38183594 C-67.95132553 115.15166306 -68.71710419 115.92149017 -69.50608826 116.71464539 C-70.20432205 117.40723953 -70.90255585 118.09983368 -71.62194824 118.81341553 C-72.22957756 119.42029079 -72.83720688 120.02716606 -73.46324921 120.65243149 C-75 121.9375 -75 121.9375 -77 121.9375 C-78.00933518 117.54773565 -79.00570033 113.15527704 -79.99072266 108.76000977 C-80.32678624 107.26866718 -80.66623461 105.77808278 -81.00927734 104.28833008 C-81.50494192 102.13298399 -81.9879142 99.97510282 -82.46875 97.81640625 C-82.62186646 97.16289688 -82.77498291 96.50938751 -82.93273926 95.83607483 C-83.36234478 93.8742477 -83.69527768 91.92257351 -84 89.9375 C-84.10553885 89.25708869 -84.21107769 88.57667738 -84.31981468 87.87564754 C-84.60600499 84.38394326 -84.58162353 81.89096598 -82.72512436 78.84757328 C-80.81252443 76.63533939 -78.799094 74.61174713 -76.68798828 72.58789062 C-75.91091522 71.80789703 -75.13384216 71.02790344 -74.33322144 70.22427368 C-71.76649725 67.65871851 -69.16928979 65.12659221 -66.5703125 62.59375 C-64.77959741 60.81728867 -62.99079352 59.03889891 -61.2038269 57.25866699 C-57.45914576 53.53679955 -53.70126936 49.82886986 -49.93017578 46.13378906 C-44.60909951 40.9199411 -39.31661827 35.67779902 -34.02984262 30.42920399 C-26.56190227 23.01817293 -19.08025376 15.62092297 -11.57080078 8.25195312 C-10.82993225 7.52162872 -10.08906372 6.79130432 -9.32574463 6.03884888 C-8.64986298 5.37734833 -7.97398132 4.71584778 -7.27761841 4.03430176 C-6.68951448 3.45696541 -6.10141056 2.87962906 -5.49548531 2.28479767 C-3.60457398 0.58125675 -2.57241196 -0.08038787 0 0 Z " fill="url(#myGradient)" transform="translate(417,16.0625)"/>
<path d="M0 0 C1.093125 0.17845459 2.18625 0.35690918 3.3125 0.54077148 C4.199375 0.73227783 5.08625 0.92378418 6 1.12109375 C6.98871094 1.33443359 7.97742188 1.54777344 8.99609375 1.76757812 C9.98738281 1.98865234 10.97867188 2.20972656 12 2.4375 C13.02222656 2.65470703 14.04445313 2.87191406 15.09765625 3.09570312 C22.61820002 4.74546668 22.61820002 4.74546668 26 7 C25.47810907 10.8870097 24.64337175 12.85796147 21.88301086 15.63165283 C21.21717484 16.31021332 20.55133881 16.9887738 19.86532593 17.68789673 C19.13028839 18.41640839 18.39525085 19.14492004 17.63793945 19.89550781 C16.86714554 20.6749173 16.09635162 21.45432678 15.30220032 22.25735474 C12.7493594 24.83291306 10.18202778 27.39343679 7.61328125 29.953125 C5.83494956 31.7366897 4.0571397 33.52077484 2.27983093 35.30535889 C-1.44864797 39.04425279 -5.18439344 42.77573856 -8.92553711 46.50195312 C-13.24662294 50.80611765 -17.55107719 55.12640767 -21.84752053 59.45515943 C-25.9855291 63.62309902 -30.13743203 67.77694836 -34.29511452 71.92525482 C-36.06078905 73.69010838 -37.82261282 75.45882312 -39.58051109 77.23142242 C-42.03885261 79.70715866 -44.51257569 82.1664276 -46.9909668 84.62207031 C-48.07834137 85.72698318 -48.07834137 85.72698318 -49.18768311 86.85421753 C-52.94340111 90.54003959 -55.45899607 92.99984587 -61 93 C-63.82004583 92.55038392 -66.48007963 92.02501545 -69.2421875 91.34765625 C-70.01055939 91.16867294 -70.77893127 90.98968964 -71.57058716 90.80528259 C-74.00803048 90.23494945 -76.44140166 89.64899913 -78.875 89.0625 C-80.53360945 88.67148655 -82.1924617 88.28150146 -83.8515625 87.89257812 C-87.90394887 86.94026603 -91.95275885 85.97393673 -96 85 C-91.60884711 79.76905367 -87.01745651 74.81762113 -82.24145508 69.9375 C-81.48771606 69.16433945 -80.73397705 68.39117889 -79.95739746 67.59458923 C-73.05751867 60.52712159 -66.12231307 53.49429338 -59.17618275 46.4723053 C-54.51771618 41.76226924 -49.87168835 37.04125109 -45.25268555 32.29248047 C-40.7722946 27.68675629 -36.26322422 23.11103073 -31.73239708 18.55493164 C-30.01438276 16.81728938 -28.30680316 15.06926472 -26.61011696 13.31079102 C-24.23587731 10.85409745 -21.82660048 8.43776242 -19.40551758 6.02734375 C-18.37091652 4.93038429 -18.37091652 4.93038429 -17.31541443 3.81126404 C-11.67977128 -1.67373168 -7.50292135 -1.59850387 0 0 Z " fill="url(#myGradient)" transform="translate(470,87)"/>
</svg>
