<svg width="144" height="30" viewBox="0 0 144 36" fill="none" xmlns="http://www.w3.org/2000/svg">
<g clip-path="url(#clip0_571_43072)">
<path d="M5.93872 9.62305L7.48987 8.0719C9.19677 6.365 11.5118 5.40607 13.9257 5.40607L13.9257 1.23613e-05L8.51967 0C8.51969 2.39796 7.56711 4.69771 5.8715 6.39332L4.29024 7.97458C0.468377 11.7964 0.468351 17.9929 4.2902 21.8147C8.11205 25.6366 14.3085 25.6366 18.1304 21.8147L19.6966 20.2485C21.3978 18.5472 23.7052 17.5915 26.1112 17.5915L26.1112 12.1854L20.7051 12.1854C20.7051 14.5914 19.7494 16.8988 18.0481 18.6L16.4819 20.1662C13.5704 23.0777 8.8501 23.0777 5.93868 20.1663C3.02726 17.2548 3.02722 12.5346 5.93872 9.62305Z" fill="url(#paint0_radial_571_43072)"/>
<path d="M28.6861 20.1657L27.135 21.7169C25.4281 23.4238 23.113 24.3827 20.6991 24.3827L20.6991 29.7888L26.1052 29.7888C26.1052 27.3908 27.0577 25.0911 28.7534 23.3955L30.3346 21.8142C34.1565 17.9923 34.1565 11.7959 30.3346 7.97404C26.5128 4.15219 20.3163 4.15221 16.4945 7.97408L14.9283 9.54029C13.227 11.2415 10.9196 12.1973 8.51367 12.1973L8.51368 17.6033L13.9197 17.6034C13.9197 15.1974 14.8755 12.89 16.5767 11.1888L18.143 9.62256C21.0544 6.71106 25.7747 6.71109 28.6862 9.62252C31.5976 12.5339 31.5976 17.2542 28.6861 20.1657Z" fill="url(#paint1_radial_571_43072)"/>
<path d="M39.536 35.9021C39.4579 35.9021 39.397 35.8869 39.3536 35.8565C39.3145 35.8304 39.2884 35.7913 39.2754 35.7392C39.2624 35.6827 39.2559 35.6219 39.2559 35.5568V31.6864C39.2559 31.6212 39.2624 31.5647 39.2754 31.5169C39.2928 31.4648 39.321 31.4257 39.3601 31.3997C39.4036 31.3693 39.4644 31.3541 39.5426 31.3541H41.3605C41.6037 31.3541 41.8166 31.4084 41.999 31.5169C42.1858 31.6255 42.3313 31.7732 42.4356 31.96C42.5398 32.1468 42.5898 32.351 42.5855 32.5725C42.5898 32.6855 42.5768 32.7962 42.5464 32.9048C42.516 33.0134 42.4703 33.1155 42.4095 33.2111C42.3531 33.3023 42.2814 33.3783 42.1945 33.4391C42.3118 33.513 42.4117 33.6085 42.4942 33.7258C42.5768 33.8431 42.6398 33.9734 42.6832 34.1168C42.7266 34.2601 42.7484 34.41 42.7484 34.5664C42.744 34.7532 42.7093 34.9291 42.6441 35.0941C42.5789 35.2549 42.4855 35.396 42.3639 35.5177C42.2423 35.6393 42.1011 35.7349 41.9404 35.8044C41.7797 35.8695 41.6081 35.9021 41.4256 35.9021H39.536ZM39.8423 35.3417H41.3605C41.5299 35.3417 41.6754 35.3092 41.797 35.244C41.9187 35.1789 42.0121 35.0833 42.0772 34.9573C42.1424 34.8313 42.175 34.6771 42.175 34.4947C42.175 34.3383 42.1532 34.2123 42.1098 34.1168C42.0664 34.0212 42.0077 33.9495 41.9339 33.9017C41.86 33.8496 41.7797 33.8127 41.6928 33.791C41.6103 33.7693 41.5277 33.7584 41.4452 33.7584C41.367 33.7541 41.2953 33.7519 41.2302 33.7519H40.8327C40.7458 33.7519 40.6828 33.7302 40.6437 33.6867C40.6046 33.6433 40.5851 33.5738 40.5851 33.4782C40.5851 33.387 40.6046 33.3218 40.6437 33.2827C40.6872 33.2436 40.7523 33.2241 40.8392 33.2241H41.2367C41.3062 33.2241 41.3844 33.2219 41.4712 33.2176C41.5581 33.2132 41.6428 33.1959 41.7254 33.1655C41.8122 33.1351 41.8817 33.0786 41.9339 32.996C41.9903 32.9092 42.0186 32.7875 42.0186 32.6312C42.0186 32.3879 41.9534 32.2098 41.8231 32.0969C41.6928 31.9796 41.4778 31.9209 41.178 31.9209H39.8423V35.3417Z" fill="#5A5A5A"/>
<path d="M47.7536 31.3736C47.8448 31.4388 47.8948 31.4996 47.9035 31.556C47.9165 31.6125 47.8948 31.6798 47.8383 31.758L46.3071 34.0842V35.6154C46.3071 35.6719 46.3006 35.724 46.2875 35.7718C46.2745 35.8152 46.2463 35.8478 46.2028 35.8695C46.1637 35.8956 46.1007 35.9086 46.0139 35.9086C45.927 35.9086 45.8618 35.8956 45.8184 35.8695C45.7793 35.8478 45.7511 35.8131 45.7337 35.7653C45.7206 35.7175 45.7141 35.6632 45.7141 35.6024V34.0777L44.1764 31.7711C44.1243 31.6929 44.1047 31.6255 44.1177 31.5691C44.1308 31.5083 44.1829 31.4453 44.2741 31.3801C44.3393 31.3367 44.3936 31.3106 44.437 31.3019C44.4848 31.2889 44.5282 31.2954 44.5673 31.3215C44.6064 31.3432 44.6434 31.3845 44.6781 31.4453L46.0073 33.5303L47.3431 31.4453C47.3822 31.3845 47.4191 31.3432 47.4539 31.3215C47.493 31.2998 47.5364 31.2932 47.5842 31.3019C47.632 31.3063 47.6884 31.3302 47.7536 31.3736Z" fill="#5A5A5A"/>
<path d="M52.501 35.9021C52.4229 35.9021 52.362 35.8891 52.3186 35.863C52.2795 35.837 52.2513 35.8022 52.2339 35.7588C52.2165 35.711 52.2078 35.6589 52.2078 35.6024V31.6407C52.2078 31.5843 52.2165 31.5365 52.2339 31.4974C52.2513 31.454 52.2817 31.4192 52.3251 31.3931C52.3686 31.3671 52.4315 31.3541 52.5141 31.3541C52.5792 31.3541 52.6314 31.3584 52.6705 31.3671C52.7096 31.3758 52.74 31.3888 52.7617 31.4062C52.7877 31.4192 52.8138 31.4409 52.8399 31.4713L54.5405 33.9343H54.3385L56.0587 31.4518C56.0848 31.4214 56.1108 31.3997 56.1369 31.3866C56.163 31.3736 56.1955 31.3649 56.2346 31.3606C56.2781 31.3562 56.328 31.3541 56.3845 31.3541C56.467 31.3541 56.5278 31.3671 56.5669 31.3931C56.6104 31.4192 56.6408 31.4561 56.6582 31.5039C56.6755 31.5474 56.6842 31.5973 56.6842 31.6538V35.6154C56.6842 35.6675 56.6755 35.7153 56.6582 35.7588C56.6408 35.8022 56.6104 35.837 56.5669 35.863C56.5235 35.8891 56.4605 35.9021 56.378 35.9021C56.2998 35.9021 56.239 35.8891 56.1955 35.863C56.1564 35.837 56.1282 35.8022 56.1108 35.7588C56.0978 35.711 56.0913 35.6589 56.0913 35.6024V32.3314L54.6969 34.3839C54.6839 34.4056 54.6665 34.4274 54.6448 34.4491C54.623 34.4665 54.5948 34.4817 54.5601 34.4947C54.5296 34.5077 54.4906 34.5142 54.4428 34.5142C54.3906 34.5142 54.3494 34.5077 54.319 34.4947C54.2929 34.4817 54.269 34.4665 54.2473 34.4491C54.2256 34.4274 54.2039 34.4035 54.1821 34.3774L52.7943 32.3379V35.6154C52.7943 35.6675 52.7856 35.7153 52.7682 35.7588C52.7552 35.8022 52.7269 35.837 52.6835 35.863C52.6444 35.8891 52.5836 35.9021 52.501 35.9021Z" fill="#5A5A5A"/>
<path d="M60.5624 35.9477C60.254 35.9477 59.963 35.8891 59.6893 35.7718C59.42 35.6545 59.1811 35.4916 58.9726 35.2831C58.7684 35.0703 58.6077 34.827 58.4904 34.5533C58.3731 34.2797 58.3145 33.9843 58.3145 33.6672C58.3145 33.3457 58.3709 33.0438 58.4839 32.7615C58.5968 32.4748 58.7532 32.225 58.953 32.0122C59.1572 31.7993 59.3917 31.6321 59.6567 31.5104C59.9217 31.3888 60.204 31.328 60.5038 31.328C60.8165 31.328 61.1076 31.3866 61.3769 31.5039C61.6506 31.6212 61.8873 31.7863 62.0871 31.9991C62.2913 32.2076 62.452 32.4531 62.5693 32.7354C62.6866 33.0178 62.7452 33.3197 62.7452 33.6411C62.7452 33.9582 62.6866 34.2558 62.5693 34.5338C62.4564 34.8075 62.3 35.0529 62.1002 35.2701C61.9003 35.4829 61.6679 35.6502 61.403 35.7718C61.1423 35.8891 60.8621 35.9477 60.5624 35.9477ZM60.5233 35.3548C60.7492 35.3548 60.9599 35.3113 61.1554 35.2245C61.3552 35.1376 61.5289 35.016 61.6766 34.8596C61.8243 34.6989 61.9394 34.5164 62.022 34.3122C62.1088 34.1037 62.1523 33.8779 62.1523 33.6346C62.1523 33.4 62.1088 33.1807 62.022 32.9765C61.9394 32.768 61.8221 32.5855 61.6701 32.4292C61.5224 32.2684 61.3508 32.1425 61.1554 32.0512C60.9599 31.96 60.7514 31.9144 60.5298 31.9144C60.3083 31.9144 60.0998 31.96 59.9043 32.0512C59.7088 32.1425 59.5351 32.2663 59.3831 32.4227C59.2354 32.579 59.1181 32.7615 59.0312 32.97C58.9487 33.1785 58.9074 33.4022 58.9074 33.6411C58.9074 33.8757 58.9487 34.0972 59.0312 34.3057C59.1181 34.5142 59.2354 34.6967 59.3831 34.8531C59.5351 35.0094 59.7067 35.1332 59.8978 35.2245C60.0933 35.3113 60.3018 35.3548 60.5233 35.3548Z" fill="#5A5A5A"/>
<path d="M64.7092 35.9021C64.6267 35.9021 64.5637 35.8891 64.5203 35.863C64.4768 35.8413 64.4486 35.8087 64.4356 35.7653C64.4269 35.7175 64.4225 35.6632 64.4225 35.6024V31.6407C64.4225 31.5843 64.4291 31.5365 64.4421 31.4974C64.4595 31.454 64.4877 31.4192 64.5268 31.3931C64.5702 31.3671 64.6332 31.3541 64.7158 31.3541H66.1558C66.3686 31.3541 66.5619 31.3866 66.7357 31.4518C66.9138 31.5126 67.068 31.6038 67.1983 31.7255C67.3286 31.8471 67.4285 32.0013 67.498 32.1881C67.5719 32.3705 67.6088 32.5834 67.6088 32.8266C67.6088 32.9787 67.5849 33.1372 67.5371 33.3023C67.4893 33.463 67.4155 33.6151 67.3156 33.7584C67.22 33.9017 67.0962 34.0212 66.9442 34.1168C66.7921 34.2123 66.6075 34.2666 66.3903 34.2797H65.009V35.6089C65.009 35.6697 65.0003 35.7218 64.9829 35.7653C64.9699 35.8087 64.9416 35.8413 64.8982 35.863C64.8591 35.8891 64.7961 35.9021 64.7092 35.9021ZM67.5045 35.8304C67.4133 35.8913 67.3351 35.9108 67.27 35.8891C67.2092 35.8674 67.1505 35.8152 67.094 35.7327L66.0515 34.0646L66.6966 33.9669L67.5958 35.4004C67.6392 35.4699 67.6653 35.5285 67.674 35.5763C67.687 35.6241 67.6783 35.6675 67.6479 35.7066C67.6218 35.7457 67.574 35.787 67.5045 35.8304ZM65.009 33.7063H66.2991C66.399 33.7063 66.4924 33.6889 66.5793 33.6541C66.6662 33.6151 66.7422 33.5586 66.8073 33.4847C66.8725 33.4109 66.9246 33.3197 66.9637 33.2111C67.0028 33.1025 67.0224 32.9722 67.0224 32.8201C67.0224 32.6333 66.9876 32.4748 66.9181 32.3445C66.853 32.2141 66.7552 32.1164 66.6249 32.0512C66.4946 31.9817 66.3339 31.947 66.1427 31.947H65.009V33.7063Z" fill="#5A5A5A"/>
<path d="M69.7136 35.9021C69.6397 35.9021 69.5811 35.8891 69.5376 35.863C69.4985 35.837 69.4703 35.8022 69.4529 35.7588C69.4356 35.711 69.4269 35.6589 69.4269 35.6024V31.6407C69.4269 31.5843 69.4334 31.5343 69.4464 31.4909C69.4638 31.4474 69.4942 31.4127 69.5376 31.3866C69.5811 31.3606 69.6419 31.3475 69.7201 31.3475L71.0037 31.3541C71.3251 31.3541 71.6162 31.4084 71.8768 31.5169C72.1418 31.6212 72.3677 31.7711 72.5545 31.9665C72.7413 32.162 72.8846 32.3988 72.9845 32.6768C73.0844 32.9548 73.1344 33.2632 73.1344 33.602C73.1344 33.9539 73.0844 34.271 72.9845 34.5533C72.8846 34.8357 72.7391 35.0768 72.548 35.2766C72.3612 35.4764 72.1353 35.6306 71.8703 35.7392C71.6053 35.8478 71.3099 35.9021 70.9842 35.9021H69.7136ZM70.0133 35.3092H71.0037C71.3208 35.3092 71.5945 35.2418 71.8247 35.1072C72.0549 34.9682 72.233 34.7749 72.359 34.5273C72.485 34.2753 72.548 33.9778 72.548 33.6346C72.548 33.2871 72.485 32.9874 72.359 32.7354C72.233 32.4835 72.0528 32.2902 71.8182 32.1555C71.588 32.0165 71.3143 31.947 70.9972 31.947H70.0133V35.3092Z" fill="#5A5A5A"/>
<path d="M76.9421 35.9477C76.6337 35.9477 76.3427 35.8891 76.069 35.7718C75.7997 35.6545 75.5608 35.4916 75.3523 35.2831C75.1481 35.0703 74.9874 34.827 74.8701 34.5533C74.7528 34.2797 74.6942 33.9843 74.6942 33.6672C74.6942 33.3457 74.7506 33.0438 74.8636 32.7615C74.9765 32.4748 75.1329 32.225 75.3327 32.0122C75.5369 31.7993 75.7715 31.6321 76.0364 31.5104C76.3014 31.3888 76.5838 31.328 76.8835 31.328C77.1962 31.328 77.4873 31.3866 77.7566 31.5039C78.0303 31.6212 78.267 31.7863 78.4668 31.9991C78.671 32.2076 78.8317 32.4531 78.949 32.7354C79.0663 33.0178 79.1249 33.3197 79.1249 33.6411C79.1249 33.9582 79.0663 34.2558 78.949 34.5338C78.8361 34.8075 78.6797 35.0529 78.4799 35.2701C78.2801 35.4829 78.0477 35.6502 77.7827 35.7718C77.522 35.8891 77.2419 35.9477 76.9421 35.9477ZM76.903 35.3548C77.1289 35.3548 77.3396 35.3113 77.5351 35.2245C77.7349 35.1376 77.9086 35.016 78.0563 34.8596C78.204 34.6989 78.3191 34.5164 78.4017 34.3122C78.4886 34.1037 78.532 33.8779 78.532 33.6346C78.532 33.4 78.4886 33.1807 78.4017 32.9765C78.3191 32.768 78.2019 32.5855 78.0498 32.4292C77.9021 32.2684 77.7305 32.1425 77.5351 32.0512C77.3396 31.96 77.1311 31.9144 76.9095 31.9144C76.688 31.9144 76.4795 31.96 76.284 32.0512C76.0886 32.1425 75.9148 32.2663 75.7628 32.4227C75.6151 32.579 75.4978 32.7615 75.4109 32.97C75.3284 33.1785 75.2871 33.4022 75.2871 33.6411C75.2871 33.8757 75.3284 34.0972 75.4109 34.3057C75.4978 34.5142 75.6151 34.6967 75.7628 34.8531C75.9148 35.0094 76.0864 35.1332 76.2775 35.2245C76.473 35.3113 76.6815 35.3548 76.903 35.3548Z" fill="#5A5A5A"/>
<path d="M81.089 35.9021C81.0064 35.9021 80.9434 35.8891 80.9 35.863C80.8566 35.8413 80.8283 35.8087 80.8153 35.7653C80.8066 35.7175 80.8023 35.6632 80.8023 35.6024V31.6407C80.8023 31.5843 80.8088 31.5365 80.8218 31.4974C80.8392 31.454 80.8674 31.4192 80.9065 31.3931C80.95 31.3671 81.0129 31.3541 81.0955 31.3541H82.5355C82.7483 31.3541 82.9416 31.3866 83.1154 31.4518C83.2935 31.5126 83.4477 31.6038 83.578 31.7255C83.7083 31.8471 83.8082 32.0013 83.8777 32.1881C83.9516 32.3705 83.9885 32.5834 83.9885 32.8266C83.9885 32.9787 83.9646 33.1372 83.9168 33.3023C83.8691 33.463 83.7952 33.6151 83.6953 33.7584C83.5997 33.9017 83.4759 34.0212 83.3239 34.1168C83.1719 34.2123 82.9872 34.2666 82.7701 34.2797H81.3887V35.6089C81.3887 35.6697 81.38 35.7218 81.3626 35.7653C81.3496 35.8087 81.3214 35.8413 81.2779 35.863C81.2388 35.8891 81.1758 35.9021 81.089 35.9021ZM83.8843 35.8304C83.793 35.8913 83.7148 35.9108 83.6497 35.8891C83.5889 35.8674 83.5302 35.8152 83.4738 35.7327L82.4312 34.0646L83.0763 33.9669L83.9755 35.4004C84.0189 35.4699 84.045 35.5285 84.0537 35.5763C84.0667 35.6241 84.058 35.6675 84.0276 35.7066C84.0015 35.7457 83.9538 35.787 83.8843 35.8304ZM81.3887 33.7063H82.6788C82.7787 33.7063 82.8721 33.6889 82.959 33.6541C83.0459 33.6151 83.1219 33.5586 83.1871 33.4847C83.2522 33.4109 83.3044 33.3197 83.3434 33.2111C83.3825 33.1025 83.4021 32.9722 83.4021 32.8201C83.4021 32.6333 83.3673 32.4748 83.2978 32.3445C83.2327 32.2141 83.1349 32.1164 83.0046 32.0512C82.8743 31.9817 82.7136 31.947 82.5224 31.947H81.3887V33.7063Z" fill="#5A5A5A"/>
<path d="M88.7511 35.9021C88.6643 35.9021 88.5991 35.8891 88.5557 35.863C88.5166 35.8413 88.4905 35.8087 88.4775 35.7653C88.4644 35.7175 88.4579 35.6632 88.4579 35.6024V31.6473C88.4579 31.5865 88.4644 31.5343 88.4775 31.4909C88.4949 31.4474 88.5231 31.4149 88.5622 31.3931C88.6056 31.3671 88.6708 31.3541 88.7576 31.3541C88.8445 31.3541 88.9075 31.3671 88.9466 31.3931C88.99 31.4149 89.0161 31.4474 89.0248 31.4909C89.0378 31.5343 89.0443 31.5886 89.0443 31.6538V35.6089C89.0443 35.6697 89.0378 35.7218 89.0248 35.7653C89.0118 35.8087 88.9835 35.8413 88.9401 35.863C88.901 35.8891 88.838 35.9021 88.7511 35.9021Z" fill="#5A5A5A"/>
<path d="M91.1737 35.9021C91.0999 35.9021 91.0412 35.8891 90.9978 35.863C90.9587 35.837 90.9305 35.8022 90.9131 35.7588C90.9 35.711 90.8935 35.6567 90.8935 35.5959V31.6277C90.8935 31.5712 90.9022 31.5235 90.9196 31.4844C90.937 31.4453 90.9674 31.4149 91.0108 31.3931C91.0586 31.3671 91.1238 31.3541 91.2063 31.3541C91.3019 31.3541 91.3692 31.3627 91.4083 31.3801C91.4474 31.3975 91.4865 31.4279 91.5256 31.4713L93.9755 34.9378V31.6277C93.9755 31.5712 93.982 31.5235 93.9951 31.4844C94.0124 31.4453 94.0429 31.4149 94.0863 31.3931C94.1297 31.3671 94.1927 31.3541 94.2753 31.3541C94.3534 31.3541 94.4121 31.3671 94.4512 31.3931C94.4946 31.4192 94.5229 31.4561 94.5359 31.5039C94.5533 31.5474 94.5619 31.5973 94.5619 31.6538V35.6024C94.5619 35.6589 94.5511 35.711 94.5294 35.7588C94.512 35.8022 94.4794 35.837 94.4316 35.863C94.3882 35.8891 94.3252 35.9021 94.2427 35.9021C94.1732 35.9021 94.1145 35.8934 94.0667 35.876C94.0233 35.8587 93.982 35.8261 93.9429 35.7783L91.48 32.3379V35.6024C91.48 35.6589 91.4713 35.711 91.4539 35.7588C91.4365 35.8022 91.4061 35.837 91.3627 35.863C91.3192 35.8891 91.2562 35.9021 91.1737 35.9021Z" fill="#5A5A5A"/>
<path d="M99.918 31.3541C99.9745 31.3541 100.02 31.3606 100.055 31.3736C100.094 31.3866 100.124 31.4127 100.146 31.4518C100.168 31.4865 100.179 31.5452 100.179 31.6277C100.179 31.7059 100.166 31.7646 100.14 31.8036C100.118 31.8427 100.087 31.8688 100.048 31.8818C100.009 31.8905 99.9615 31.8949 99.905 31.8949H98.5562V35.6154C98.5562 35.6719 98.5475 35.7218 98.5301 35.7653C98.5171 35.8087 98.4889 35.8413 98.4454 35.863C98.4063 35.8891 98.3455 35.9021 98.263 35.9021C98.1761 35.9021 98.111 35.8891 98.0675 35.863C98.0284 35.8413 98.0024 35.8087 97.9893 35.7653C97.9806 35.7175 97.9763 35.6654 97.9763 35.6089V31.8949H96.608C96.5515 31.8949 96.5037 31.8905 96.4646 31.8818C96.4255 31.8688 96.3951 31.8427 96.3734 31.8036C96.3517 31.7646 96.3408 31.7059 96.3408 31.6277C96.3408 31.5452 96.3495 31.4865 96.3669 31.4518C96.3886 31.4127 96.419 31.3866 96.4581 31.3736C96.5015 31.3606 96.5493 31.3541 96.6015 31.3541H99.918Z" fill="#5A5A5A"/>
<path d="M102.219 35.9021C102.132 35.9021 102.066 35.8891 102.023 35.863C101.984 35.8413 101.958 35.8087 101.945 35.7653C101.932 35.7175 101.925 35.6632 101.925 35.6024V31.6473C101.925 31.5343 101.947 31.4583 101.99 31.4192C102.038 31.3758 102.121 31.3541 102.238 31.3541H104.857C104.918 31.3541 104.97 31.3606 105.014 31.3736C105.057 31.3866 105.09 31.4149 105.112 31.4583C105.133 31.5017 105.144 31.5669 105.144 31.6538C105.144 31.7407 105.131 31.8058 105.105 31.8493C105.083 31.8884 105.051 31.9144 105.007 31.9274C104.964 31.9405 104.912 31.947 104.851 31.947H102.512V33.2958H104.141C104.202 33.2958 104.251 33.3023 104.291 33.3153C104.334 33.3284 104.367 33.3544 104.388 33.3935C104.41 33.4326 104.421 33.4934 104.421 33.576C104.421 33.6541 104.41 33.7128 104.388 33.7519C104.367 33.791 104.334 33.817 104.291 33.8301C104.247 33.8388 104.193 33.8431 104.128 33.8431H102.512V35.3157H104.857C104.918 35.3157 104.97 35.3222 105.014 35.3352C105.057 35.3483 105.09 35.3765 105.112 35.4199C105.133 35.459 105.144 35.522 105.144 35.6089C105.144 35.6958 105.131 35.7609 105.105 35.8044C105.083 35.8435 105.051 35.8695 105.007 35.8826C104.964 35.8956 104.912 35.9021 104.851 35.9021H102.219Z" fill="#5A5A5A"/>
<path d="M107.23 35.9021C107.143 35.9021 107.077 35.8891 107.034 35.863C106.991 35.8413 106.96 35.8087 106.943 35.7653C106.93 35.7218 106.923 35.6697 106.923 35.6089V31.6538C106.923 31.5886 106.93 31.5343 106.943 31.4909C106.956 31.4474 106.982 31.4149 107.021 31.3931C107.064 31.3671 107.13 31.3541 107.216 31.3541C107.303 31.3541 107.366 31.3671 107.405 31.3931C107.449 31.4149 107.477 31.4474 107.49 31.4909C107.503 31.5343 107.51 31.5865 107.51 31.6473V35.3548H109.693C109.749 35.3548 109.797 35.3613 109.836 35.3743C109.875 35.3874 109.905 35.4134 109.927 35.4525C109.953 35.4916 109.966 35.5503 109.966 35.6284C109.966 35.7023 109.955 35.7609 109.934 35.8044C109.912 35.8435 109.881 35.8695 109.842 35.8826C109.803 35.8956 109.755 35.9021 109.699 35.9021H107.23Z" fill="#5A5A5A"/>
<path d="M111.873 35.9021C111.786 35.9021 111.721 35.8891 111.677 35.863C111.634 35.8413 111.603 35.8087 111.586 35.7653C111.573 35.7218 111.567 35.6697 111.567 35.6089V31.6538C111.567 31.5886 111.573 31.5343 111.586 31.4909C111.599 31.4474 111.625 31.4149 111.664 31.3931C111.708 31.3671 111.773 31.3541 111.86 31.3541C111.947 31.3541 112.01 31.3671 112.049 31.3931C112.092 31.4149 112.12 31.4474 112.133 31.4909C112.146 31.5343 112.153 31.5865 112.153 31.6473V35.3548H114.336C114.392 35.3548 114.44 35.3613 114.479 35.3743C114.518 35.3874 114.549 35.4134 114.57 35.4525C114.596 35.4916 114.609 35.5503 114.609 35.6284C114.609 35.7023 114.599 35.7609 114.577 35.8044C114.555 35.8435 114.525 35.8695 114.486 35.8826C114.447 35.8956 114.399 35.9021 114.342 35.9021H111.873Z" fill="#5A5A5A"/>
<path d="M116.49 35.9021C116.403 35.9021 116.338 35.8891 116.295 35.863C116.255 35.8413 116.229 35.8087 116.216 35.7653C116.203 35.7175 116.197 35.6632 116.197 35.6024V31.6473C116.197 31.5865 116.203 31.5343 116.216 31.4909C116.234 31.4474 116.262 31.4149 116.301 31.3931C116.345 31.3671 116.41 31.3541 116.497 31.3541C116.583 31.3541 116.646 31.3671 116.686 31.3931C116.729 31.4149 116.755 31.4474 116.764 31.4909C116.777 31.5343 116.783 31.5886 116.783 31.6538V35.6089C116.783 35.6697 116.777 35.7218 116.764 35.7653C116.751 35.8087 116.722 35.8413 116.679 35.863C116.64 35.8891 116.577 35.9021 116.49 35.9021Z" fill="#5A5A5A"/>
<path d="M120.783 35.9151C120.444 35.9151 120.14 35.8608 119.87 35.7522C119.601 35.6393 119.369 35.4808 119.173 35.2766C118.982 35.0681 118.834 34.8183 118.73 34.5273C118.626 34.2362 118.574 33.9126 118.574 33.5564C118.574 33.2176 118.626 32.9113 118.73 32.6377C118.839 32.364 118.993 32.1294 119.193 31.934C119.393 31.7385 119.632 31.5865 119.91 31.4779C120.188 31.3649 120.5 31.3063 120.848 31.3019C120.982 31.3019 121.119 31.315 121.258 31.341C121.402 31.3671 121.539 31.404 121.669 31.4518C121.799 31.4996 121.916 31.556 122.021 31.6212C122.095 31.669 122.158 31.7189 122.21 31.7711C122.262 31.8188 122.29 31.8688 122.294 31.9209C122.299 31.947 122.294 31.9796 122.281 32.0187C122.268 32.0578 122.251 32.0947 122.229 32.1294C122.194 32.1816 122.155 32.2207 122.112 32.2467C122.073 32.2684 122.034 32.2793 121.995 32.2793C121.977 32.2793 121.947 32.2684 121.903 32.2467C121.86 32.225 121.806 32.1924 121.741 32.149C121.667 32.1055 121.58 32.0643 121.48 32.0252C121.384 31.9861 121.28 31.9557 121.167 31.934C121.054 31.9122 120.937 31.9014 120.815 31.9014C120.481 31.9014 120.19 31.9687 119.942 32.1034C119.695 32.238 119.503 32.4313 119.369 32.6833C119.238 32.9352 119.171 33.2328 119.167 33.576C119.171 33.9322 119.241 34.2406 119.375 34.5012C119.51 34.7618 119.699 34.9638 119.942 35.1072C120.19 35.2505 120.479 35.3222 120.809 35.3222C120.917 35.3222 121.028 35.3135 121.141 35.2961C121.254 35.2788 121.365 35.2549 121.473 35.2245C121.586 35.1897 121.691 35.1484 121.786 35.1007V33.8431H120.646C120.589 33.8431 120.539 33.8366 120.496 33.8236C120.457 33.8105 120.426 33.7845 120.405 33.7454C120.387 33.7063 120.379 33.6476 120.379 33.5694C120.379 33.4912 120.39 33.4326 120.411 33.3935C120.433 33.3544 120.463 33.3284 120.502 33.3153C120.542 33.3023 120.589 33.2958 120.646 33.2958H122.06C122.147 33.2958 122.212 33.311 122.255 33.3414C122.299 33.3718 122.329 33.4109 122.346 33.4587C122.368 33.5021 122.379 33.5564 122.379 33.6216V35.2245C122.379 35.294 122.34 35.3678 122.262 35.446C122.188 35.5198 122.081 35.5894 121.942 35.6545C121.843 35.7066 121.73 35.7522 121.604 35.7913C121.482 35.8304 121.352 35.8608 121.213 35.8826C121.074 35.9043 120.93 35.9151 120.783 35.9151Z" fill="#5A5A5A"/>
<path d="M124.621 35.9021C124.534 35.9021 124.469 35.8891 124.425 35.863C124.386 35.8413 124.36 35.8087 124.347 35.7653C124.334 35.7175 124.327 35.6632 124.327 35.6024V31.6473C124.327 31.5343 124.349 31.4583 124.393 31.4192C124.44 31.3758 124.523 31.3541 124.64 31.3541H127.259C127.32 31.3541 127.372 31.3606 127.416 31.3736C127.459 31.3866 127.492 31.4149 127.514 31.4583C127.535 31.5017 127.546 31.5669 127.546 31.6538C127.546 31.7407 127.533 31.8058 127.507 31.8493C127.485 31.8884 127.453 31.9144 127.409 31.9274C127.366 31.9405 127.314 31.947 127.253 31.947H124.914V33.2958H126.543C126.604 33.2958 126.653 33.3023 126.693 33.3153C126.736 33.3284 126.769 33.3544 126.79 33.3935C126.812 33.4326 126.823 33.4934 126.823 33.576C126.823 33.6541 126.812 33.7128 126.79 33.7519C126.769 33.791 126.736 33.817 126.693 33.8301C126.649 33.8388 126.595 33.8431 126.53 33.8431H124.914V35.3157H127.259C127.32 35.3157 127.372 35.3222 127.416 35.3352C127.459 35.3483 127.492 35.3765 127.514 35.4199C127.535 35.459 127.546 35.522 127.546 35.6089C127.546 35.6958 127.533 35.7609 127.507 35.8044C127.485 35.8435 127.453 35.8695 127.409 35.8826C127.366 35.8956 127.314 35.9021 127.253 35.9021H124.621Z" fill="#5A5A5A"/>
<path d="M129.605 35.9021C129.532 35.9021 129.473 35.8891 129.43 35.863C129.39 35.837 129.362 35.8022 129.345 35.7588C129.332 35.711 129.325 35.6567 129.325 35.5959V31.6277C129.325 31.5712 129.334 31.5235 129.351 31.4844C129.369 31.4453 129.399 31.4149 129.443 31.3931C129.49 31.3671 129.556 31.3541 129.638 31.3541C129.734 31.3541 129.801 31.3627 129.84 31.3801C129.879 31.3975 129.918 31.4279 129.957 31.4713L132.407 34.9378V31.6277C132.407 31.5712 132.414 31.5235 132.427 31.4844C132.444 31.4453 132.475 31.4149 132.518 31.3931C132.562 31.3671 132.624 31.3541 132.707 31.3541C132.785 31.3541 132.844 31.3671 132.883 31.3931C132.926 31.4192 132.955 31.4561 132.968 31.5039C132.985 31.5474 132.994 31.5973 132.994 31.6538V35.6024C132.994 35.6589 132.983 35.711 132.961 35.7588C132.944 35.8022 132.911 35.837 132.863 35.863C132.82 35.8891 132.757 35.9021 132.674 35.9021C132.605 35.9021 132.546 35.8934 132.499 35.876C132.455 35.8587 132.414 35.8261 132.375 35.7783L129.912 32.3379V35.6024C129.912 35.6589 129.903 35.711 129.886 35.7588C129.868 35.8022 129.838 35.837 129.794 35.863C129.751 35.8891 129.688 35.9021 129.605 35.9021Z" fill="#5A5A5A"/>
<path d="M137.125 35.9151C136.89 35.9151 136.662 35.8804 136.441 35.8109C136.219 35.7414 136.013 35.6415 135.822 35.5112C135.631 35.3808 135.461 35.2201 135.313 35.029C135.17 34.8335 135.057 34.6163 134.975 34.3774C134.892 34.1341 134.851 33.867 134.851 33.576C134.851 33.2979 134.892 33.0417 134.975 32.8071C135.057 32.5682 135.17 32.3575 135.313 32.175C135.457 31.9926 135.624 31.8384 135.815 31.7124C136.011 31.5821 136.219 31.4844 136.441 31.4192C136.667 31.3497 136.897 31.315 137.131 31.315C137.349 31.315 137.535 31.3367 137.692 31.3801C137.848 31.4236 137.976 31.4713 138.076 31.5235C138.176 31.5712 138.243 31.6082 138.278 31.6342C138.339 31.669 138.398 31.7103 138.454 31.758C138.511 31.8058 138.541 31.8623 138.545 31.9274C138.554 31.9752 138.55 32.0143 138.532 32.0447C138.519 32.0751 138.502 32.1077 138.48 32.1425C138.445 32.1946 138.408 32.2337 138.369 32.2598C138.335 32.2815 138.296 32.2923 138.252 32.2923C138.209 32.2923 138.17 32.2793 138.135 32.2532C138.1 32.2272 138.054 32.1968 137.998 32.162C137.972 32.1446 137.92 32.1164 137.842 32.0773C137.763 32.0382 137.663 32.0013 137.542 31.9665C137.42 31.9274 137.273 31.9079 137.099 31.9079C136.877 31.9079 136.664 31.9492 136.46 32.0317C136.26 32.1099 136.084 32.2228 135.932 32.3705C135.78 32.5182 135.661 32.6963 135.574 32.9048C135.487 33.1133 135.444 33.3479 135.444 33.6085C135.444 33.8735 135.487 34.1124 135.574 34.3253C135.661 34.5338 135.78 34.7119 135.932 34.8596C136.089 35.0073 136.267 35.1202 136.467 35.1984C136.667 35.2766 136.877 35.3157 137.099 35.3157C137.264 35.3157 137.407 35.2983 137.529 35.2636C137.655 35.2288 137.757 35.1919 137.835 35.1528C137.918 35.1094 137.974 35.0768 138.004 35.0551C138.052 35.029 138.094 35.0029 138.128 34.9769C138.167 34.9508 138.209 34.9378 138.252 34.9378C138.296 34.9378 138.335 34.9508 138.369 34.9769C138.408 34.9986 138.445 35.0355 138.48 35.0876C138.502 35.118 138.519 35.1528 138.532 35.1919C138.55 35.2266 138.554 35.2657 138.545 35.3092C138.541 35.3743 138.511 35.4308 138.454 35.4786C138.398 35.522 138.339 35.5633 138.278 35.6024C138.239 35.6198 138.17 35.6567 138.07 35.7132C137.974 35.7653 137.848 35.8109 137.692 35.85C137.535 35.8934 137.346 35.9151 137.125 35.9151Z" fill="#5A5A5A"/>
<path d="M140.669 35.9021C140.583 35.9021 140.517 35.8891 140.474 35.863C140.435 35.8413 140.409 35.8087 140.396 35.7653C140.383 35.7175 140.376 35.6632 140.376 35.6024V31.6473C140.376 31.5343 140.398 31.4583 140.441 31.4192C140.489 31.3758 140.572 31.3541 140.689 31.3541H143.308C143.369 31.3541 143.421 31.3606 143.465 31.3736C143.508 31.3866 143.541 31.4149 143.562 31.4583C143.584 31.5017 143.595 31.5669 143.595 31.6538C143.595 31.7407 143.582 31.8058 143.556 31.8493C143.534 31.8884 143.502 31.9144 143.458 31.9274C143.415 31.9405 143.363 31.947 143.302 31.947H140.963V33.2958H142.592C142.652 33.2958 142.702 33.3023 142.741 33.3153C142.785 33.3284 142.817 33.3544 142.839 33.3935C142.861 33.4326 142.872 33.4934 142.872 33.576C142.872 33.6541 142.861 33.7128 142.839 33.7519C142.817 33.791 142.785 33.817 142.741 33.8301C142.698 33.8388 142.644 33.8431 142.579 33.8431H140.963V35.3157H143.308C143.369 35.3157 143.421 35.3222 143.465 35.3352C143.508 35.3483 143.541 35.3765 143.562 35.4199C143.584 35.459 143.595 35.522 143.595 35.6089C143.595 35.6958 143.582 35.7609 143.556 35.8044C143.534 35.8435 143.502 35.8695 143.458 35.8826C143.415 35.8956 143.363 35.9021 143.302 35.9021H140.669Z" fill="#5A5A5A"/>
<path d="M45.1208 20.8036C44.3291 20.7743 43.557 20.6277 42.8044 20.3638C42.0616 20.0901 41.4068 19.7236 40.8399 19.2643C40.2828 18.7951 39.8772 18.2576 39.623 17.6516L41.7342 16.7426C41.8808 17.0749 42.1447 17.3877 42.5259 17.6809C42.907 17.9741 43.3469 18.2087 43.8453 18.3846C44.3438 18.5606 44.8471 18.6485 45.3554 18.6485C45.8929 18.6485 46.3963 18.5654 46.8654 18.3993C47.3345 18.2331 47.7157 17.9888 48.0089 17.6663C48.3119 17.3339 48.4634 16.9381 48.4634 16.4787C48.4634 15.9901 48.2973 15.6089 47.965 15.3352C47.6424 15.0518 47.2319 14.8319 46.7335 14.6755C46.2448 14.5093 45.7463 14.3529 45.2381 14.2063C44.2314 13.9522 43.3322 13.6492 42.5405 13.2974C41.7488 12.9358 41.1233 12.4813 40.664 11.9339C40.2144 11.3768 39.9896 10.6682 39.9896 9.80815C39.9896 8.89918 40.2388 8.1124 40.7373 7.44778C41.2455 6.78316 41.9101 6.27004 42.7311 5.90841C43.5521 5.54678 44.4317 5.36597 45.37 5.36597C46.5526 5.36597 47.6326 5.62008 48.61 6.12832C49.5874 6.63656 50.3155 7.32561 50.7945 8.19547L48.8153 9.35366C48.6491 9.00181 48.395 8.69393 48.0529 8.43004C47.7108 8.15638 47.3199 7.94135 46.8801 7.78497C46.4402 7.62859 45.9907 7.54552 45.5313 7.53574C44.9644 7.5162 44.4317 7.5895 43.9333 7.75565C43.4446 7.92181 43.0488 8.17593 42.7458 8.51801C42.4526 8.85032 42.3059 9.2657 42.3059 9.76416C42.3059 10.2529 42.4623 10.6243 42.7751 10.8784C43.0976 11.1325 43.513 11.3377 44.0212 11.4941C44.5393 11.6407 45.1012 11.8118 45.7072 12.0072C46.5966 12.2907 47.4274 12.6181 48.1995 12.9895C48.9717 13.3609 49.5923 13.8252 50.0614 14.3823C50.5403 14.9394 50.7749 15.6284 50.7651 16.4494C50.7651 17.3486 50.4964 18.1354 49.9588 18.8098C49.4212 19.4744 48.7224 19.9826 47.8623 20.3345C47.012 20.6863 46.0982 20.8427 45.1208 20.8036Z" fill="#191919"/>
<path d="M62.6288 5.86443H65.2384L57.219 27.8554H54.6094L57.263 20.5251L51.9998 5.86443H54.6974L58.4945 17.1385L62.6288 5.86443Z" fill="#191919"/>
<path d="M80.633 11.4062V20.5251H78.17V11.9486C78.17 11.2058 77.9892 10.5314 77.6276 9.92543C77.2659 9.31946 76.7821 8.84054 76.1762 8.48869C75.5702 8.12706 74.8958 7.94624 74.153 7.94624C73.42 7.94624 72.7456 8.12706 72.1298 8.48869C71.5239 8.84054 71.0401 9.31946 70.6784 9.92543C70.3168 10.5314 70.136 11.2058 70.136 11.9486V20.5251H67.673V5.86443H70.136V7.69701C70.654 7.01285 71.3088 6.4704 72.1005 6.06968C72.8922 5.65918 73.7523 5.45393 74.6808 5.45393C75.7754 5.45393 76.7724 5.72271 77.6716 6.26027C78.5805 6.78805 79.2989 7.50154 79.8267 8.40072C80.3642 9.29991 80.633 10.3017 80.633 11.4062Z" fill="#191919"/>
<path d="M94.9191 5.86443H97.3821V20.5251H94.9191L94.8165 18.0474C94.3571 18.8977 93.7218 19.5868 92.9106 20.1146C92.1092 20.6424 91.1513 20.9063 90.0371 20.9063C88.962 20.9063 87.9553 20.7059 87.017 20.3052C86.0788 19.8947 85.248 19.3327 84.5247 18.6192C83.8112 17.8959 83.2541 17.0652 82.8534 16.1269C82.4527 15.1886 82.2523 14.177 82.2523 13.0921C82.2523 12.0463 82.4478 11.0592 82.8387 10.1307C83.2297 9.20217 83.7721 8.39095 84.4661 7.69701C85.1698 6.9933 85.981 6.44597 86.8997 6.05502C87.8185 5.65429 88.8056 5.45393 89.8612 5.45393C91.0145 5.45393 92.0261 5.7276 92.896 6.27493C93.7658 6.81248 94.4695 7.51131 95.0071 8.3714L94.9191 5.86443ZM89.9931 18.5166C90.9608 18.5166 91.7964 18.282 92.5001 17.8129C93.2136 17.3339 93.7609 16.6889 94.1421 15.8777C94.5331 15.0664 94.7285 14.1721 94.7285 13.1948C94.7285 12.1978 94.5331 11.2986 94.1421 10.4972C93.7512 9.68597 93.1989 9.04579 92.4855 8.57665C91.7817 8.09773 90.951 7.85828 89.9931 7.85828C89.0255 7.85828 88.1459 8.09773 87.3542 8.57665C86.5626 9.05556 85.9321 9.70063 85.463 10.5119C85.0036 11.3133 84.774 12.2076 84.774 13.1948C84.774 14.1819 85.0134 15.0811 85.4923 15.8923C85.9712 16.6938 86.6065 17.3339 87.3982 17.8129C88.1899 18.282 89.0549 18.5166 89.9931 18.5166Z" fill="#191919"/>
<path d="M102.629 27.8554H100.166V5.86443H102.629V8.3714C103.127 7.51131 103.792 6.81737 104.623 6.28959C105.453 5.75203 106.441 5.48325 107.584 5.48325C108.649 5.48325 109.646 5.68361 110.575 6.08434C111.513 6.48506 112.334 7.04217 113.038 7.75565C113.742 8.45936 114.294 9.27547 114.695 10.204C115.095 11.1325 115.296 12.1294 115.296 13.1948C115.296 14.2601 115.095 15.2619 114.695 16.2002C114.294 17.1385 113.742 17.9644 113.038 18.6778C112.334 19.3815 111.513 19.9338 110.575 20.3345C109.646 20.7352 108.649 20.9356 107.584 20.9356C106.441 20.9356 105.453 20.6717 104.623 20.1439C103.792 19.6063 103.127 18.9075 102.629 18.0474V27.8554ZM107.555 7.87294C106.607 7.87294 105.776 8.1124 105.062 8.59131C104.349 9.07022 103.797 9.71041 103.406 10.5119C103.025 11.3133 102.834 12.2076 102.834 13.1948C102.834 14.1721 103.025 15.0664 103.406 15.8777C103.797 16.6889 104.344 17.3339 105.048 17.8129C105.761 18.2918 106.597 18.5312 107.555 18.5312C108.503 18.5312 109.373 18.2967 110.164 17.8275C110.956 17.3486 111.591 16.7084 112.07 15.907C112.549 15.0958 112.789 14.1917 112.789 13.1948C112.789 12.2174 112.554 11.328 112.085 10.5265C111.616 9.71529 110.985 9.07022 110.194 8.59131C109.402 8.1124 108.522 7.87294 107.555 7.87294Z" fill="#191919"/>
<path d="M122.129 20.8036C121.338 20.7743 120.565 20.6277 119.813 20.3638C119.07 20.0901 118.415 19.7236 117.848 19.2643C117.291 18.7951 116.886 18.2576 116.632 17.6516L118.743 16.7426C118.889 17.0749 119.153 17.3877 119.534 17.6809C119.916 17.9741 120.355 18.2087 120.854 18.3846C121.352 18.5606 121.856 18.6485 122.364 18.6485C122.901 18.6485 123.405 18.5654 123.874 18.3993C124.343 18.2331 124.724 17.9888 125.017 17.6663C125.32 17.3339 125.472 16.9381 125.472 16.4787C125.472 15.9901 125.306 15.6089 124.973 15.3352C124.651 15.0518 124.24 14.8319 123.742 14.6755C123.253 14.5093 122.755 14.3529 122.247 14.2063C121.24 13.9522 120.341 13.6492 119.549 13.2974C118.757 12.9358 118.132 12.4813 117.672 11.9339C117.223 11.3768 116.998 10.6682 116.998 9.80815C116.998 8.89918 117.247 8.1124 117.746 7.44778C118.254 6.78316 118.919 6.27004 119.74 5.90841C120.561 5.54678 121.44 5.36597 122.379 5.36597C123.561 5.36597 124.641 5.62008 125.619 6.12832C126.596 6.63656 127.324 7.32561 127.803 8.19547L125.824 9.35366C125.658 9.00181 125.404 8.69393 125.061 8.43004C124.719 8.15638 124.328 7.94135 123.889 7.78497C123.449 7.62859 122.999 7.54552 122.54 7.53574C121.973 7.5162 121.44 7.5895 120.942 7.75565C120.453 7.92181 120.057 8.17593 119.754 8.51801C119.461 8.85032 119.314 9.2657 119.314 9.76416C119.314 10.2529 119.471 10.6243 119.784 10.8784C120.106 11.1325 120.522 11.3377 121.03 11.4941C121.548 11.6407 122.11 11.8118 122.716 12.0072C123.605 12.2907 124.436 12.6181 125.208 12.9895C125.98 13.3609 126.601 13.8252 127.07 14.3823C127.549 14.9394 127.783 15.6284 127.774 16.4494C127.774 17.3486 127.505 18.1354 126.967 18.8098C126.43 19.4744 125.731 19.9826 124.871 20.3345C124.021 20.6863 123.107 20.8427 122.129 20.8036Z" fill="#191919"/>
<path d="M136.446 20.9063C135.098 20.9063 133.866 20.5593 132.752 19.8654C131.647 19.1714 130.763 18.2429 130.098 17.0798C129.443 15.907 129.116 14.612 129.116 13.1948C129.116 12.1196 129.307 11.1178 129.688 10.1893C130.069 9.25104 130.592 8.43004 131.256 7.72633C131.931 7.01285 132.713 6.45574 133.602 6.05502C134.492 5.65429 135.44 5.45393 136.446 5.45393C137.551 5.45393 138.562 5.67873 139.481 6.12832C140.41 6.56814 141.201 7.18389 141.856 7.97556C142.521 8.76724 143.014 9.68597 143.337 10.7318C143.669 11.7776 143.791 12.8967 143.703 14.0891H131.74C131.858 14.9198 132.131 15.6626 132.561 16.3175C132.991 16.9625 133.539 17.4757 134.203 17.8568C134.878 18.238 135.625 18.4335 136.446 18.4433C137.326 18.4433 138.123 18.2185 138.836 17.7689C139.549 17.3095 140.126 16.684 140.566 15.8923L143.073 16.4787C142.487 17.7787 141.602 18.844 140.419 19.6748C139.237 20.4958 137.912 20.9063 136.446 20.9063ZM131.667 12.1538H141.226C141.148 11.3329 140.884 10.5852 140.434 9.91077C139.984 9.22661 139.413 8.67927 138.719 8.26878C138.025 7.85828 137.267 7.65303 136.446 7.65303C135.625 7.65303 134.873 7.85339 134.189 8.25412C133.504 8.65484 132.938 9.19728 132.488 9.88145C132.048 10.5558 131.774 11.3133 131.667 12.1538Z" fill="#191919"/>
</g>
<defs>
<radialGradient id="paint0_radial_571_43072" cx="0" cy="0" r="1" gradientUnits="userSpaceOnUse" gradientTransform="translate(26.2338 12.308) rotate(-135) scale(21.2289 18.9766)">
<stop stop-color="#4CE3FF"/>
<stop offset="1" stop-color="#0766F4"/>
</radialGradient>
<radialGradient id="paint1_radial_571_43072" cx="0" cy="0" r="1" gradientUnits="userSpaceOnUse" gradientTransform="translate(8.39119 17.4808) rotate(45) scale(21.2289 18.9766)">
<stop stop-color="#4CE3FF"/>
<stop offset="1" stop-color="#0766F4"/>
</radialGradient>
<clipPath id="clip0_571_43072">
<rect width="142.86" height="36" fill="white" transform="translate(0.935547)"/>
</clipPath>
</defs>
</svg>
